<svg id="Capa_1" enable-background="new 0 0 512 512" height="512" viewBox="0 0 512 512" width="512" xmlns="http://www.w3.org/2000/svg"><g><path d="m333.424 128.964h-154.848v-92.026c0-4.879 3.955-8.835 8.835-8.835h137.177c4.879 0 8.835 3.955 8.835 8.835v92.026z" fill="#b4d0d5"/><path d="m324.589 28.104h-21.715c4.879 0 8.835 3.956 8.835 8.835v92.026h21.715v-92.027c0-4.879-3.956-8.834-8.835-8.834z" fill="#9bb9c1"/><path d="m310.37 128.964h-108.74-38.848c-5.196 0-9.409 4.212-9.409 9.409v272.594c0 1.907.58 3.77 1.662 5.34l43.79 63.52c1.756 2.547 4.652 4.069 7.746 4.069h98.856c3.094 0 5.99-1.521 7.746-4.069l43.79-63.52c1.083-1.57 1.662-3.433 1.662-5.34v-272.594c0-5.196-4.212-9.409-9.409-9.409z" fill="#70b9c6"/><path d="m349.218 128.964h-28.289c5.196 0 9.409 4.212 9.409 9.409v272.594c0 1.908-.58 3.77-1.662 5.34l-43.79 63.52c-1.756 2.547-4.652 4.069-7.746 4.069h28.289c3.094 0 5.99-1.521 7.746-4.069l43.79-63.52c1.083-1.57 1.662-3.433 1.662-5.34v-272.594c0-5.196-4.213-9.409-9.409-9.409z" fill="#61aab7"/><g fill="#f6e781"><path d="m241.488 128.964h-28.815v-55.24c0-2.753 2.232-4.985 4.985-4.985h18.844c2.753 0 4.985 2.232 4.985 4.985v55.24z"/><path d="m299.327 128.964h-28.815v-55.24c0-2.753 2.232-4.985 4.985-4.985h18.844c2.753 0 4.985 2.232 4.985 4.985v55.24z"/></g><path d="m306.327 188.418h-100.654c-3.474 0-6.29-2.816-6.29-6.29v-17.562c0-3.474 2.816-6.29 6.29-6.29h100.653c3.474 0 6.29 2.816 6.29 6.29v17.562c0 3.474-2.816 6.29-6.289 6.29z" fill="#f6e781"/><path d="m306.327 158.277h-20.715c3.474 0 6.29 2.816 6.29 6.29v17.562c0 3.474-2.816 6.29-6.29 6.29h20.715c3.474 0 6.29-2.816 6.29-6.29v-17.562c-.001-3.474-2.817-6.29-6.29-6.29z" fill="#f6e266"/><g><path d="m97.333 66.238c4.143 0 7.5-3.357 7.5-7.5v-43.738h43.738c4.143 0 7.5-3.357 7.5-7.5s-3.357-7.5-7.5-7.5h-51.238c-4.143 0-7.5 3.357-7.5 7.5v51.238c0 4.143 3.358 7.5 7.5 7.5z"/><path d="m414.667 0h-51.238c-4.143 0-7.5 3.357-7.5 7.5s3.357 7.5 7.5 7.5h43.738v43.738c0 4.143 3.357 7.5 7.5 7.5s7.5-3.357 7.5-7.5v-51.238c0-4.143-3.358-7.5-7.5-7.5z"/><path d="m148.572 497h-43.738v-43.739c0-4.143-3.357-7.5-7.5-7.5s-7.5 3.357-7.5 7.5v51.239c0 4.143 3.357 7.5 7.5 7.5h51.238c4.143 0 7.5-3.357 7.5-7.5s-3.358-7.5-7.5-7.5z"/><path d="m414.667 445.761c-4.143 0-7.5 3.357-7.5 7.5v43.739h-43.738c-4.143 0-7.5 3.357-7.5 7.5s3.357 7.5 7.5 7.5h51.238c4.143 0 7.5-3.357 7.5-7.5v-51.239c0-4.143-3.358-7.5-7.5-7.5z"/><path d="m232.672 298.93c-4.143 0-7.5 3.357-7.5 7.5v25.829c0 2.96 1.74 5.643 4.443 6.849l18.885 8.429v19.211c0 4.143 3.357 7.5 7.5 7.5s7.5-3.357 7.5-7.5v-23.92c0-.006 0-.012 0-.018v-20.888l18.884-8.429c2.703-1.206 4.443-3.889 4.443-6.849v-25.829c0-4.143-3.357-7.5-7.5-7.5s-7.5 3.357-7.5 7.5v20.964l-8.327 3.717v-30.716c0-4.143-3.357-7.5-7.5-7.5s-7.5 3.357-7.5 7.5v42.41.024 13.897l-8.328-3.717v-20.964c0-4.143-3.357-7.5-7.5-7.5z"/><path d="m215.923 434.149c0 4.143 3.357 7.5 7.5 7.5h65.153c4.143 0 7.5-3.357 7.5-7.5s-3.357-7.5-7.5-7.5h-65.153c-4.142 0-7.5 3.358-7.5 7.5z"/><path d="m366.126 410.967v-163.859h41.446c4.143 0 7.5-3.357 7.5-7.5s-3.357-7.5-7.5-7.5h-41.446v-93.735c0-9.323-7.585-16.908-16.908-16.908h-8.295v-84.527c0-9.007-7.328-16.335-16.335-16.335h-65.258c-4.143 0-7.5 3.357-7.5 7.5s3.357 7.5 7.5 7.5h65.259c.736 0 1.335.599 1.335 1.335v84.526h-19.096v-47.74c0-6.885-5.601-12.485-12.485-12.485h-18.845c-6.885 0-12.485 5.601-12.485 12.485v47.741h-14.024v-47.741c0-6.885-5.601-12.485-12.485-12.485h-18.845c-6.885 0-12.485 5.601-12.485 12.485v47.741h-19.096v-84.527c0-.736.599-1.335 1.335-1.335h41.932c4.143 0 7.5-3.357 7.5-7.5s-3.357-7.5-7.5-7.5h-41.932c-9.007 0-16.335 7.328-16.335 16.335v84.526h-8.295c-9.323 0-16.908 7.585-16.908 16.908v93.735h-41.446c-4.143 0-7.5 3.357-7.5 7.5s3.357 7.5 7.5 7.5h41.446v163.858c0 3.442 1.032 6.761 2.987 9.598l43.789 63.519c3.156 4.579 8.36 7.313 13.922 7.313h98.856c5.562 0 10.766-2.734 13.921-7.312l13.854-20.097c2.351-3.41 1.492-8.081-1.918-10.432-3.41-2.353-8.08-1.493-10.432 1.918l-13.855 20.098c-.355.517-.943.825-1.57.825h-98.856c-.627 0-1.215-.309-1.571-.826l-43.789-63.519c-.221-.32-.338-.695-.338-1.085v-163.857h190.253v163.858c0 .39-.116.764-.337 1.084l-12.91 18.727c-2.352 3.41-1.492 8.081 1.918 10.432 3.41 2.353 8.081 1.492 10.432-1.918l12.909-18.726c1.953-2.834 2.986-6.153 2.986-9.598zm-88.114-334.729h13.815v45.226h-13.815zm-57.84 0h13.815v45.226h-13.815zm-59.298 155.87v-93.735c0-1.052.856-1.908 1.908-1.908h186.437c1.052 0 1.908.856 1.908 1.908v93.735z"/><path d="m306.327 150.777h-100.654c-7.604 0-13.79 6.186-13.79 13.789v17.562c0 7.604 6.187 13.789 13.79 13.789h100.653c7.604 0 13.79-6.186 13.79-13.789v-17.562c.001-7.603-6.186-13.789-13.789-13.789zm-1.21 30.141h-98.233v-15.141h98.233z"/></g></g></svg>