<svg id="Capa_1" enable-background="new 0 0 512 512" height="512" viewBox="0 0 512 512" width="512" xmlns="http://www.w3.org/2000/svg"><g><path d="m493.572 475.471h-475.143c-6.036 0-10.928-4.893-10.928-10.928v-372.774l19.362-17.343h452.492l25.145 17.343v372.773c0 6.036-4.892 10.929-10.928 10.929z" fill="#f4fbff"/><path d="m479.354 74.426v390.116c0 6.036-4.893 10.928-10.928 10.928h25.146c6.036 0 10.928-4.893 10.928-10.928v-372.773z" fill="#dfeaef"/><path d="m493.572 36.529h-475.143c-6.036 0-10.928 4.893-10.928 10.928v44.311h497v-44.31c-.001-6.036-4.893-10.929-10.929-10.929z" fill="#70b9c6"/><path d="m493.572 36.529h-25.146c6.036 0 10.928 4.893 10.928 10.928v44.311h25.146v-44.31c0-6.036-4.892-10.929-10.928-10.929z" fill="#61aab7"/><g><path d="m32.828 64.149c0 4.143 3.357 7.5 7.5 7.5h64.622c4.143 0 7.5-3.357 7.5-7.5s-3.357-7.5-7.5-7.5h-64.622c-4.142 0-7.5 3.357-7.5 7.5z"/><path d="m493.572 29.03h-384.442c-4.143 0-7.5 3.357-7.5 7.5s3.357 7.5 7.5 7.5h384.442c1.89 0 3.428 1.538 3.428 3.428v36.812h-482v-36.812c0-1.89 1.538-3.428 3.429-3.428h60.715c4.143 0 7.5-3.357 7.5-7.5s-3.357-7.5-7.5-7.5h-60.715c-10.162 0-18.429 8.266-18.429 18.428v417.085c0 10.161 8.267 18.428 18.429 18.428h393.952c4.143 0 7.5-3.357 7.5-7.5s-3.357-7.5-7.5-7.5h-393.952c-1.891 0-3.429-1.538-3.429-3.428v-365.274h482v365.273c0 1.89-1.538 3.428-3.428 3.428h-51.205c-4.143 0-7.5 3.357-7.5 7.5s3.357 7.5 7.5 7.5h51.205c10.161 0 18.428-8.267 18.428-18.428v-417.084c0-10.162-8.267-18.428-18.428-18.428z"/><path d="m65.743 161.097c0-4.143-3.357-7.5-7.5-7.5s-7.5 3.357-7.5 7.5v59.517c0 4.143 3.357 7.5 7.5 7.5s7.5-3.357 7.5-7.5z"/><path d="m216.399 228.114c4.143 0 7.5-3.357 7.5-7.5v-59.517c0-4.143-3.357-7.5-7.5-7.5s-7.5 3.357-7.5 7.5v59.517c0 4.142 3.358 7.5 7.5 7.5z"/><path d="m251.849 220.614v-59.517c0-4.143-3.357-7.5-7.5-7.5s-7.5 3.357-7.5 7.5v59.517c0 4.143 3.357 7.5 7.5 7.5s7.5-3.358 7.5-7.5z"/><path d="m282.423 220.614v-59.517c0-4.143-3.357-7.5-7.5-7.5s-7.5 3.357-7.5 7.5v59.517c0 4.143 3.357 7.5 7.5 7.5 4.142 0 7.5-3.358 7.5-7.5z"/><path d="m310.372 220.614v-59.517c0-4.143-3.357-7.5-7.5-7.5s-7.5 3.357-7.5 7.5v59.517c0 4.143 3.357 7.5 7.5 7.5s7.5-3.358 7.5-7.5z"/><path d="m340.947 220.614v-59.517c0-4.143-3.357-7.5-7.5-7.5s-7.5 3.357-7.5 7.5v59.517c0 4.143 3.357 7.5 7.5 7.5s7.5-3.358 7.5-7.5z"/><path d="m361.396 228.114c4.143 0 7.5-3.357 7.5-7.5v-59.517c0-4.143-3.357-7.5-7.5-7.5s-7.5 3.357-7.5 7.5v59.517c0 4.142 3.357 7.5 7.5 7.5z"/><path d="m453.757 228.114c4.143 0 7.5-3.357 7.5-7.5v-59.517c0-4.143-3.357-7.5-7.5-7.5s-7.5 3.357-7.5 7.5v59.517c0 4.142 3.357 7.5 7.5 7.5z"/><path d="m98.343 228.114h10.826c12.046 0 21.846-9.8 21.846-21.845v-30.826c0-12.046-9.8-21.846-21.846-21.846h-10.826c-12.045 0-21.845 9.8-21.845 21.846v30.826c0 12.045 9.8 21.845 21.845 21.845zm-6.845-52.671c0-3.774 3.07-6.846 6.845-6.846h10.826c3.774 0 6.846 3.071 6.846 6.846v30.826c0 3.774-3.071 6.845-6.846 6.845h-10.826c-3.774 0-6.845-3.07-6.845-6.845z"/><path d="m164.674 228.114h10.825c12.046 0 21.846-9.8 21.846-21.845v-30.826c0-12.046-9.8-21.846-21.846-21.846h-10.825c-12.046 0-21.846 9.8-21.846 21.846v30.826c0 12.045 9.8 21.845 21.846 21.845zm-6.846-52.671c0-3.774 3.071-6.846 6.846-6.846h10.825c3.774 0 6.846 3.071 6.846 6.846v30.826c0 3.774-3.071 6.845-6.846 6.845h-10.825c-3.774 0-6.846-3.07-6.846-6.845z"/><path d="m402.203 228.114h10.826c12.045 0 21.845-9.8 21.845-21.845v-30.826c0-12.046-9.8-21.846-21.845-21.846h-10.826c-12.046 0-21.846 9.8-21.846 21.846v30.826c0 12.045 9.8 21.845 21.846 21.845zm-6.846-52.671c0-3.774 3.071-6.846 6.846-6.846h10.826c3.774 0 6.845 3.071 6.845 6.846v30.826c0 3.774-3.07 6.845-6.845 6.845h-10.826c-3.774 0-6.846-3.07-6.846-6.845z"/><path d="m446.257 406.142c0 4.143 3.357 7.5 7.5 7.5s7.5-3.357 7.5-7.5v-59.516c0-4.143-3.357-7.5-7.5-7.5s-7.5 3.357-7.5 7.5z"/><path d="m295.602 339.126c-4.143 0-7.5 3.357-7.5 7.5v59.516c0 4.143 3.357 7.5 7.5 7.5s7.5-3.357 7.5-7.5v-59.516c0-4.142-3.358-7.5-7.5-7.5z"/><path d="m267.652 413.642c4.143 0 7.5-3.357 7.5-7.5v-59.516c0-4.143-3.357-7.5-7.5-7.5s-7.5 3.357-7.5 7.5v59.516c0 4.143 3.358 7.5 7.5 7.5z"/><path d="m229.578 346.626v59.516c0 4.143 3.357 7.5 7.5 7.5s7.5-3.357 7.5-7.5v-59.516c0-4.143-3.357-7.5-7.5-7.5s-7.5 3.358-7.5 7.5z"/><path d="m201.629 346.626v59.516c0 4.143 3.357 7.5 7.5 7.5s7.5-3.357 7.5-7.5v-59.516c0-4.143-3.357-7.5-7.5-7.5s-7.5 3.358-7.5 7.5z"/><path d="m171.054 346.626v59.516c0 4.143 3.357 7.5 7.5 7.5s7.5-3.357 7.5-7.5v-59.516c0-4.143-3.357-7.5-7.5-7.5s-7.5 3.358-7.5 7.5z"/><path d="m150.604 413.642c4.143 0 7.5-3.357 7.5-7.5v-59.516c0-4.143-3.357-7.5-7.5-7.5s-7.5 3.357-7.5 7.5v59.516c0 4.143 3.358 7.5 7.5 7.5z"/><path d="m58.243 339.126c-4.143 0-7.5 3.357-7.5 7.5v59.516c0 4.143 3.357 7.5 7.5 7.5s7.5-3.357 7.5-7.5v-59.516c0-4.142-3.357-7.5-7.5-7.5z"/><path d="m402.831 413.642h10.826c12.046 0 21.846-9.8 21.846-21.845v-30.826c0-12.045-9.8-21.845-21.846-21.845h-10.826c-12.045 0-21.845 9.8-21.845 21.845v30.826c0 12.045 9.8 21.845 21.845 21.845zm-6.845-52.671c0-3.774 3.07-6.845 6.845-6.845h10.826c3.774 0 6.846 3.07 6.846 6.845v30.826c0 3.774-3.071 6.845-6.846 6.845h-10.826c-3.774 0-6.845-3.07-6.845-6.845z"/><path d="m336.501 413.642h10.826c12.045 0 21.845-9.8 21.845-21.845v-30.826c0-12.045-9.8-21.845-21.845-21.845h-10.826c-12.045 0-21.845 9.8-21.845 21.845v30.826c0 12.045 9.8 21.845 21.845 21.845zm-6.845-52.671c0-3.774 3.07-6.845 6.845-6.845h10.826c3.774 0 6.845 3.07 6.845 6.845v30.826c0 3.774-3.07 6.845-6.845 6.845h-10.826c-3.774 0-6.845-3.07-6.845-6.845z"/><path d="m98.972 413.642h10.826c12.045 0 21.845-9.8 21.845-21.845v-30.826c0-12.045-9.8-21.845-21.845-21.845h-10.826c-12.045 0-21.845 9.8-21.845 21.845v30.826c0 12.045 9.8 21.845 21.845 21.845zm-6.845-52.671c0-3.774 3.07-6.845 6.845-6.845h10.826c3.774 0 6.845 3.07 6.845 6.845v30.826c0 3.774-3.07 6.845-6.845 6.845h-10.826c-3.774 0-6.845-3.07-6.845-6.845z"/><path d="m65.743 253.862c0-4.143-3.357-7.5-7.5-7.5s-7.5 3.357-7.5 7.5v59.516c0 4.143 3.357 7.5 7.5 7.5s7.5-3.357 7.5-7.5z"/><path d="m446.257 313.377c0 4.143 3.357 7.5 7.5 7.5s7.5-3.357 7.5-7.5v-59.516c0-4.143-3.357-7.5-7.5-7.5s-7.5 3.357-7.5 7.5z"/><path d="m351.896 313.377c0 4.143 3.357 7.5 7.5 7.5s7.5-3.357 7.5-7.5v-59.516c0-4.143-3.357-7.5-7.5-7.5s-7.5 3.357-7.5 7.5z"/><path d="m76.498 299.033c0 12.045 9.8 21.845 21.845 21.845h10.826c12.046 0 21.846-9.8 21.846-21.845v-30.826c0-12.045-9.8-21.845-21.846-21.845h-10.826c-12.045 0-21.845 9.8-21.845 21.845zm15-30.826c0-3.774 3.07-6.845 6.845-6.845h10.826c3.774 0 6.846 3.07 6.846 6.845v30.826c0 3.774-3.071 6.845-6.846 6.845h-10.826c-3.774 0-6.845-3.07-6.845-6.845z"/><path d="m198.345 299.033v-30.826c0-12.045-9.8-21.845-21.846-21.845h-10.825c-12.046 0-21.846 9.8-21.846 21.845v30.826c0 12.045 9.8 21.845 21.846 21.845h10.825c12.046-.001 21.846-9.8 21.846-21.845zm-15 0c0 3.774-3.071 6.845-6.846 6.845h-10.825c-3.774 0-6.846-3.07-6.846-6.845v-30.826c0-3.774 3.071-6.845 6.846-6.845h10.825c3.774 0 6.846 3.07 6.846 6.845z"/><path d="m267.415 299.033v-30.826c0-12.045-9.8-21.845-21.845-21.845h-10.826c-12.045 0-21.845 9.8-21.845 21.845v30.826c0 12.045 9.8 21.845 21.845 21.845h10.826c12.045-.001 21.845-9.8 21.845-21.845zm-39.516 0v-30.826c0-3.774 3.07-6.845 6.845-6.845h10.826c3.774 0 6.845 3.07 6.845 6.845v30.826c0 3.774-3.07 6.845-6.845 6.845h-10.826c-3.774-.001-6.845-3.071-6.845-6.845z"/><path d="m335.13 299.033v-30.826c0-12.045-9.8-21.845-21.845-21.845h-10.826c-12.045 0-21.845 9.8-21.845 21.845v30.826c0 12.045 9.8 21.845 21.845 21.845h10.826c12.045-.001 21.845-9.8 21.845-21.845zm-39.516 0v-30.826c0-3.774 3.07-6.845 6.845-6.845h10.826c3.774 0 6.845 3.07 6.845 6.845v30.826c0 3.774-3.07 6.845-6.845 6.845h-10.826c-3.774-.001-6.845-3.071-6.845-6.845z"/><path d="m380.357 299.033c0 12.045 9.8 21.845 21.846 21.845h10.826c12.045 0 21.845-9.8 21.845-21.845v-30.826c0-12.045-9.8-21.845-21.845-21.845h-10.826c-12.046 0-21.846 9.8-21.846 21.845zm15-30.826c0-3.774 3.071-6.845 6.846-6.845h10.826c3.774 0 6.845 3.07 6.845 6.845v30.826c0 3.774-3.07 6.845-6.845 6.845h-10.826c-3.774 0-6.846-3.07-6.846-6.845z"/></g></g></svg>