<svg id="Capa_1" enable-background="new 0 0 512 512" height="512" viewBox="0 0 512 512" width="512" xmlns="http://www.w3.org/2000/svg"><g><path d="m430.664 7.5h-349.328c-5.413 0-10.041 3.95-10.825 9.306-4.059 27.724-25.981 49.646-53.705 53.705-5.356.784-9.306 5.412-9.306 10.825v67.54c0 139.901 78.212 268.062 202.628 332.037l45.872 23.587 45.872-23.587c124.417-63.975 202.628-192.136 202.628-332.037v-67.54c0-5.413-3.95-10.041-9.306-10.825-27.724-4.059-49.646-25.981-53.705-53.705-.784-5.356-5.412-9.306-10.825-9.306z" fill="#f6e781"/><path d="m495.195 70.511c-27.724-4.059-49.646-25.981-53.705-53.705-.784-5.356-5.412-9.306-10.825-9.306h-53.037c5.413 0 10.041 3.95 10.825 9.306 4.059 27.724 25.981 49.646 53.705 53.705 5.356.784 9.306 5.412 9.306 10.825v67.54c0 139.901-78.211 268.062-202.628 332.037l-19.353 9.951 26.517 13.636 45.872-23.587c124.417-63.975 202.628-192.136 202.628-332.037v-67.54c0-5.413-3.949-10.041-9.305-10.825z" fill="#f6e266"/><g><path d="m256 129.682s-82.07 39.523-82.07 39.523c-2.067.995-3.568 2.877-4.078 5.114l-20.27 88.807 59.057 74.056h94.721l59.057-74.056-21.077-92.346c.001 0-85.34-41.098-85.34-41.098z" fill="#80e29d"/><path d="m341.341 170.78-85.341-41.098-25.833 12.441 61.124 29.436c12.14 5.846 21.077 16.757 24.418 29.811l10.172 39.741c3.549 13.866.39 28.593-8.534 39.783l-44.888 56.288h30.901l59.057-74.056z" fill="#78d090"/><g fill="#61aab7"><g><path d="m194.98 159.068-12.262-56.244 46.928 39.549z"/><path d="m164.47 197.899-55.763 1.375 47.066 36.729z"/><path d="m165.844 283.517 23.539 29.517-53.649 20.27z"/></g><g><path d="m317.021 159.068 12.262-56.244-46.928 39.549z"/><path d="m347.531 197.899 55.763 1.375-47.066 36.729z"/><path d="m346.157 283.517-23.539 29.517 53.649 20.27z"/></g><path d="m229.801 337.181h42.853l-21.347 31.995z"/></g></g><g><path d="m410.416 196.921c-.994-3.008-3.771-5.067-6.938-5.146l-49.934-1.231-4.892-21.434c-.508-2.226-2.001-4.098-4.058-5.088l-18.985-9.143 11.001-50.458c.684-3.138-.705-6.362-3.455-8.021-2.751-1.657-6.251-1.382-8.706.688l-43.217 36.421-21.979-10.585c-2.057-.99-4.451-.99-6.508 0l-21.979 10.584-43.217-36.42c-2.455-2.069-5.954-2.344-8.706-.688-2.75 1.658-4.139 4.883-3.455 8.021l11.001 50.458-3.133 1.509c-3.732 1.797-5.301 6.279-3.503 10.011 1.798 3.733 6.28 5.301 10.011 3.503 22.181-10.682 44.246-21.307 66.234-31.896l78.833 37.964c7.051 30.893 12.276 53.784 19.47 85.304l-54.554 68.408h-87.497l-54.554-68.408 17.236-75.52c.922-4.038-1.604-8.06-5.643-8.98-4.039-.929-8.06 1.604-8.98 5.643l-1.855 8.128-49.934 1.231c-3.167.078-5.943 2.138-6.938 5.146-.993 3.009.011 6.316 2.508 8.266l43.308 33.797-5.129 22.474c-.509 2.226.024 4.561 1.448 6.345l13.002 16.305-27.407 45.317c-1.654 2.735-1.393 6.221.653 8.679 1.454 1.747 3.582 2.702 5.767 2.702.888 0 1.784-.157 2.648-.484l48.541-18.339 15.852 19.878c1.423 1.785 3.581 2.824 5.863 2.824h17.165l19.278 28.679c1.394 2.072 3.728 3.315 6.225 3.315h.013c2.502-.004 4.838-1.256 6.227-3.338l19.12-28.656h26.694c2.282 0 4.44-1.039 5.863-2.824l15.852-19.878 48.541 18.339c.864.327 1.761.484 2.648.484 2.185 0 4.312-.955 5.767-2.702 2.046-2.458 2.308-5.942.653-8.679l-27.406-45.317 13.002-16.305c1.424-1.784 1.957-4.119 1.448-6.345l-5.129-22.474 43.308-33.797c2.5-1.951 3.504-5.258 2.511-8.267zm-93.157-74.155-5.543 25.423-15.669-7.546zm-101.305 17.877-15.669 7.546-5.543-25.423zm-60.942 64.991-3.925 17.198-21.243-16.577zm-1.633 112.985 13.312-22.011 10.406 13.05zm97.905 37.078-7.405-11.016h14.755zm83.618-46.039 10.407-13.05 13.312 22.012zm26.012-86.826-3.925-17.198 25.168.621z"/><path d="m220.511 220.47c1.366 1.057 2.98 1.567 4.584 1.567 2.241 0 4.46-1.001 5.938-2.911 2.534-3.276 1.933-7.987-1.344-10.521l-13.475-10.422c-3.276-2.533-7.986-1.933-10.521 1.344-2.534 3.276-1.933 7.987 1.344 10.521z"/><path d="m286.906 222.037c1.603 0 3.218-.512 4.584-1.567l13.474-10.422c3.276-2.534 3.878-7.245 1.344-10.521-2.535-3.276-7.244-3.877-10.521-1.344l-13.474 10.422c-3.276 2.534-3.878 7.245-1.344 10.521 1.478 1.91 3.695 2.911 5.937 2.911z"/><path d="m250.502 271.249 4.406-4.135h11.722c4.143 0 7.5-3.357 7.5-7.5s-3.357-7.5-7.5-7.5h-14.69c-1.906 0-3.741.727-5.132 2.03l-6.57 6.165c-3.021 2.835-3.172 7.581-.338 10.602 1.477 1.573 3.472 2.368 5.472 2.368 1.839 0 3.683-.673 5.13-2.03z"/><path d="m108.338 72.076h35.942c4.143 0 7.5-3.357 7.5-7.5s-3.357-7.5-7.5-7.5h-35.942c-4.143 0-7.5 3.357-7.5 7.5s3.357 7.5 7.5 7.5z"/><path d="m403.663 57.076h-35.943c-4.143 0-7.5 3.357-7.5 7.5s3.357 7.5 7.5 7.5h35.943c4.143 0 7.5-3.357 7.5-7.5s-3.357-7.5-7.5-7.5z"/><path d="m496.28 63.09c-24.328-3.562-43.808-23.041-47.37-47.371-1.312-8.961-9.156-15.719-18.246-15.719h-349.328c-9.09 0-16.934 6.758-18.246 15.72-3.562 24.329-23.041 43.809-47.371 47.37-8.961 1.312-15.719 9.156-15.719 18.246v67.54c0 70.021 19.28 138.626 55.756 198.397 36.477 59.771 88.672 108.29 150.943 140.31l45.871 23.587c1.076.554 2.253.83 3.43.83s2.354-.276 3.43-.83l45.872-23.587c70.202-36.098 126.666-92.16 163.285-162.126 1.921-3.67.503-8.201-3.167-10.122-3.671-1.921-8.202-.502-10.122 3.167-35.179 67.211-89.418 121.065-156.855 155.741l-42.443 21.823-42.441-21.823c-59.82-30.759-109.959-77.366-144.998-134.783-35.04-57.417-53.561-123.32-53.561-190.584v-67.54c0-1.699 1.243-3.163 2.892-3.404 30.837-4.514 55.526-29.203 60.04-60.039.241-1.65 1.705-2.893 3.404-2.893h349.328c1.699 0 3.163 1.243 3.404 2.893 4.516 30.836 29.204 55.525 60.04 60.039 1.648.241 2.892 1.705 2.892 3.404v67.54c0 49.406-9.79 97.509-29.1 142.972-1.619 3.812.159 8.216 3.972 9.835 3.812 1.62 8.217-.158 9.835-3.972 20.101-47.327 30.293-97.402 30.293-148.835v-67.54c0-9.09-6.758-16.935-15.72-18.246z"/></g></g></svg>