<svg id="Capa_1" enable-background="new 0 0 512 512" height="512" viewBox="0 0 512 512" width="512" xmlns="http://www.w3.org/2000/svg"><g><g><path d="m410.909 154.059c-10.217 0-18.5-8.282-18.5-18.5v-65.551c0-34.467 28.041-62.508 62.508-62.508h13.046c10.217 0 18.5 8.282 18.5 18.5s-8.283 18.5-18.5 18.5h-13.046c-14.065 0-25.508 11.442-25.508 25.508v65.551c0 10.217-8.283 18.5-18.5 18.5z" fill="#ecbe6b"/></g><path d="m410.909 154.059c10.217 0 18.5-8.282 18.5-18.5v-26.584h-37v26.584c0 10.217 8.284 18.5 18.5 18.5z" fill="#eab14d"/><path d="m493.572 504.5h-395.143c-6.036 0-10.928-4.893-10.928-10.928v-312.774l19.362-17.343h372.492l25.146 17.343v312.773c-.001 6.036-4.893 10.929-10.929 10.929z" fill="#f4fbff"/><path d="m479.354 163.455v330.116c0 6.036-4.893 10.928-10.928 10.928h25.146c6.036 0 10.928-4.893 10.928-10.928v-312.773z" fill="#dfeaef"/><path d="m493.572 125.559h-395.143c-6.036 0-10.928 4.893-10.928 10.928v44.311h417v-44.311c-.001-6.036-4.893-10.928-10.929-10.928z" fill="#70b9c6"/><path d="m493.572 125.559h-25.146c6.036 0 10.928 4.893 10.928 10.928v44.311h25.146v-44.311c0-6.036-4.892-10.928-10.928-10.928z" fill="#61aab7"/><circle cx="366.8" cy="342.649" fill="#738b95" r="52.767"/><path d="m366.8 289.882c-4.556 0-8.978.578-13.195 1.664 22.757 5.859 39.572 26.518 39.572 51.104s-16.815 45.245-39.572 51.104c4.217 1.086 8.639 1.663 13.195 1.663 29.143 0 52.767-23.625 52.767-52.767s-23.624-52.768-52.767-52.768z" fill="#617881"/><path d="m416.225 324.149c-10.176 0-358.78 0-369.608 0-21.568 0-39.116 17.547-39.116 39.115v48.836c0 10.217 8.283 18.5 18.5 18.5 10.218 0 18.5-8.283 18.5-18.5v-48.835c0-1.166.949-2.115 2.116-2.115h369.608c2.156-5.758 3.343-11.99 3.343-18.5s-1.187-12.743-3.343-18.501z" fill="#ecbe6b"/><g><path d="m416.225 324.149c-1.57 0-11.199 0-26.391 0 2.156 5.758 3.343 11.99 3.343 18.5s-1.186 12.742-3.343 18.5h26.391c2.156-5.758 3.343-11.99 3.343-18.5s-1.187-12.742-3.343-18.5z" fill="#eab14d"/></g><g><path d="m112.828 153.179c0 4.143 3.357 7.5 7.5 7.5h64.622c4.143 0 7.5-3.357 7.5-7.5s-3.357-7.5-7.5-7.5h-64.622c-4.142 0-7.5 3.357-7.5 7.5z"/><path d="m493.572 118.059h-56.663v-48.051c0-9.93 8.078-18.008 18.008-18.008h13.046c14.337 0 26-11.663 26-26s-11.663-26-26-26h-13.046c-11.002 0-21.414 2.558-30.686 7.1-17.614 8.216-33.74 27.552-37.345 46.433-1.281 5.287-1.976 10.8-1.976 16.475v48.051h-195.78c-4.143 0-7.5 3.357-7.5 7.5s3.357 7.5 7.5 7.5h304.442c1.89 0 3.428 1.538 3.428 3.429v36.812h-402v-36.812c0-1.891 1.538-3.429 3.429-3.429h60.715c4.143 0 7.5-3.357 7.5-7.5s-3.357-7.5-7.5-7.5h-60.715c-10.162 0-18.429 8.268-18.429 18.429v180.162h-33.384c-25.704-.001-46.616 20.911-46.616 46.615v48.835c0 14.336 11.663 26 26 26s26-11.664 26-26v-43.45h28v124.922c0 10.16 8.267 18.428 18.429 18.428h313.952c4.143 0 7.5-3.357 7.5-7.5s-3.357-7.5-7.5-7.5h-313.952c-1.891 0-3.429-1.538-3.429-3.429v-124.922h74.956c4.143 0 7.5-3.357 7.5-7.5s-3.357-7.5-7.5-7.5h-3.293v-22h37.603v22h-4.322c-4.143 0-7.5 3.357-7.5 7.5s3.357 7.5 7.5 7.5h112.471c9.977 20.954 30.871 34.268 54.385 34.268 33.274 0 60.268-27.118 60.268-60.268 0-33.139-26.983-60.268-60.268-60.268-23.225 0-44.446 13.575-54.372 34.268h-217.428v-128.35h402v305.272c0 1.891-1.538 3.429-3.428 3.429h-51.205c-4.143 0-7.5 3.357-7.5 7.5s3.357 7.5 7.5 7.5h51.205c10.161 0 18.428-8.267 18.428-18.429v-357.084c0-10.161-8.267-18.428-18.428-18.428zm-93.663-48.051c0-1.832.094-3.641.27-5.427l21.73 6.638v16.475h-22zm68.054-55.008c6.065 0 11 4.935 11 11s-4.935 11-11 11h-13.046c-1.491 0-2.957.109-4.396.302l-12.105-19.77c5.212-1.642 10.754-2.532 16.501-2.532zm-43.166 9.014 11.49 18.765c-4.957 3.403-8.938 8.123-11.443 13.651l-21.14-6.458c4.192-10.68 11.626-19.738 21.093-25.958zm-24.888 94.045v-15.365h22v15.365zm-338.45 235.59v-22h37.603v22zm-46.459 19.757h22v17.678h-22zm31.459-41.753v22.004c-3.463.056-6.479 1.951-8.127 4.749h-22.958c2.336-15.083 15.374-26.675 31.085-26.753zm-20.459 91.447c-6.065 0-11-4.935-11-11v-6.016h22v6.016c0 6.065-4.935 11-11 11zm125.663-69.451h-37.602v-22h37.602zm67.603-22h37.603v22h-37.603zm191.443 0c.883 3.523 1.358 7.207 1.358 11s-.475 7.477-1.358 11h-33.637v-22zm-48.637 22h-37.602v-22h37.602zm-52.601 0h-37.603v-22h37.603zm57.329 34.268c-15.101 0-28.761-7.312-37.091-19.268h74.114c-8.2 11.641-21.734 19.268-37.023 19.268zm0-90.535c15.29 0 28.823 7.627 37.022 19.268h-74.063c8.359-11.839 22.151-19.268 37.041-19.268z"/><path d="m473.756 239.614c0-4.143-3.357-7.5-7.5-7.5h-60.057c-1.989 0-3.896.79-5.304 2.196l-12.922 12.922c-2.929 2.93-2.929 7.678 0 10.607 1.465 1.464 3.385 2.196 5.304 2.196s3.839-.732 5.304-2.196l10.725-10.726h56.95c4.142.001 7.5-3.356 7.5-7.499z"/><path d="m473.756 265.333c0-4.143-3.357-7.5-7.5-7.5h-32.103c-4.143 0-7.5 3.357-7.5 7.5s3.357 7.5 7.5 7.5h32.103c4.142 0 7.5-3.357 7.5-7.5z"/><path d="m218.653 417.87 13.982-13.982c2.929-2.93 2.929-7.678 0-10.607-2.93-2.928-7.678-2.928-10.607 0l-11.785 11.786h-51.08c-4.143 0-7.5 3.357-7.5 7.5s3.357 7.5 7.5 7.5h54.187c1.989-.001 3.896-.791 5.303-2.197z"/><path d="m159.163 429.407c-4.143 0-7.5 3.357-7.5 7.5s3.357 7.5 7.5 7.5h29.807c4.143 0 7.5-3.357 7.5-7.5s-3.357-7.5-7.5-7.5z"/></g></g></svg>