<svg id="Capa_1" enable-background="new 0 0 512 512" height="512" viewBox="0 0 512 512" width="512" xmlns="http://www.w3.org/2000/svg"><g><path d="m493.572 475.47h-475.143c-6.036 0-10.928-4.893-10.928-10.928v-372.773l19.362-17.343h452.492l25.145 17.343v372.773c0 6.035-4.892 10.928-10.928 10.928z" fill="#f4fbff"/><path d="m479.354 74.426v390.116c0 6.036-4.893 10.928-10.928 10.928h25.146c6.036 0 10.928-4.893 10.928-10.928v-372.773z" fill="#dfeaef"/><path d="m493.572 36.529h-475.143c-6.036 0-10.928 4.893-10.928 10.928v44.311h497v-44.311c-.001-6.035-4.893-10.928-10.929-10.928z" fill="#e28086"/><path d="m493.572 36.529h-25.146c6.036 0 10.928 4.893 10.928 10.928v44.311h25.146v-44.311c0-6.035-4.892-10.928-10.928-10.928z" fill="#dd636e"/><g><path d="m336.875 315.201c11.445-16.523 17.958-36.721 17.404-58.468-1.336-52.495-44.379-95.013-96.886-95.74-54.934-.761-99.705 43.542-99.705 98.302 0 20.778 6.448 40.049 17.45 55.925 2.554 3.686-.078 8.719-4.563 8.719h-.002c-14.317 0-25.924 11.607-25.924 25.924 0 14.317 11.607 25.924 25.924 25.924h170.853c14.317 0 25.924-11.607 25.924-25.924 0-14.317-11.607-25.924-25.924-25.924-4.494-.001-7.11-5.044-4.551-8.738z" fill="#738b95"/><path d="m341.427 323.938c-4.495 0-7.111-5.043-4.552-8.738 11.445-16.523 17.958-36.721 17.404-58.468-1.336-52.495-44.379-95.013-96.886-95.74-4.807-.067-9.533.219-14.161.82 47.24 6.167 84.328 46.253 85.567 94.92.553 21.747-5.96 41.945-17.404 58.468-2.559 3.695.057 8.738 4.552 8.738 14.317 0 25.924 11.607 25.924 25.924s-11.606 25.924-25.924 25.924h25.48c14.317 0 25.924-11.607 25.924-25.924s-11.607-25.924-25.924-25.924z" fill="#617881"/><g fill="#f4fbff"><path d="m241.644 251.571c0 13.907-11.274 25.18-25.18 25.18s-25.18-11.274-25.18-25.18c0-13.907 11.274-25.18 25.18-25.18z"/><path d="m270.357 251.571c0 13.907 11.274 25.18 25.18 25.18 13.907 0 25.18-11.274 25.18-25.18 0-13.907-11.274-25.18-25.18-25.18z"/></g><path d="m302.981 406.256h-93.961c-16.828 0-30.47-13.642-30.47-30.47h154.9c0 16.828-13.641 30.47-30.469 30.47z" fill="#617881"/><g><g><circle cx="100.709" cy="195.051" fill="#80e29d" r="12.874"/></g><g><circle cx="100.709" cy="281.805" fill="#80e29d" r="12.874"/></g><g><circle cx="100.709" cy="369.559" fill="#80e29d" r="12.874"/></g></g><g><g><circle cx="411.292" cy="195.051" fill="#80e29d" r="12.874"/></g><g><circle cx="411.292" cy="281.805" fill="#80e29d" r="12.874"/></g><g><circle cx="411.292" cy="369.559" fill="#80e29d" r="12.874"/></g></g></g><g><path d="m32.828 64.149c0 4.142 3.357 7.5 7.5 7.5h64.622c4.143 0 7.5-3.358 7.5-7.5s-3.357-7.5-7.5-7.5h-64.622c-4.142 0-7.5 3.358-7.5 7.5z"/><path d="m493.572 29.029h-384.442c-4.143 0-7.5 3.358-7.5 7.5s3.357 7.5 7.5 7.5h384.442c1.89 0 3.428 1.538 3.428 3.428v36.812h-482v-36.811c0-1.89 1.538-3.428 3.429-3.428h60.715c4.143 0 7.5-3.358 7.5-7.5s-3.357-7.5-7.5-7.5h-60.715c-10.162-.001-18.429 8.266-18.429 18.428v417.084c0 10.162 8.267 18.429 18.429 18.429h393.952c4.143 0 7.5-3.357 7.5-7.5s-3.357-7.5-7.5-7.5h-393.952c-1.891 0-3.429-1.538-3.429-3.429v-365.273h482v365.273c0 1.891-1.538 3.429-3.428 3.429h-51.205c-4.143 0-7.5 3.357-7.5 7.5s3.357 7.5 7.5 7.5h51.205c10.161 0 18.428-8.267 18.428-18.429v-417.084c0-10.162-8.267-18.429-18.428-18.429z"/><path d="m216.464 284.252c18.02 0 32.68-14.66 32.68-32.681 0-1.989-.79-3.896-2.196-5.303l-25.18-25.181c-1.407-1.407-3.314-2.197-5.304-2.197-18.021 0-32.681 14.661-32.681 32.681 0 18.021 14.66 32.681 32.681 32.681zm-2.873-50.128 20.319 20.32c-1.376 8.388-8.676 14.808-17.446 14.808-9.749 0-17.681-7.932-17.681-17.681 0-8.771 6.42-16.071 14.808-17.447z"/><path d="m295.537 284.252c18.021 0 32.681-14.66 32.681-32.681 0-18.02-14.66-32.681-32.681-32.681-1.989 0-3.896.79-5.304 2.197l-25.181 25.181c-1.406 1.406-2.196 3.314-2.196 5.303 0 18.021 14.661 32.681 32.681 32.681zm2.873-50.128c8.388 1.376 14.808 8.676 14.808 17.447 0 9.749-7.932 17.681-17.681 17.681-8.771 0-16.07-6.42-17.447-14.808z"/><path d="m395.535 227.766 12.61-12.609c1.029.161 2.074.269 3.147.269 11.234 0 20.374-9.14 20.374-20.375s-9.14-20.375-20.374-20.375-20.374 9.14-20.374 20.375c0 4.534 1.507 8.712 4.021 12.1l-7.812 7.812h-35.068c-5.272-11.348-12.595-21.792-21.761-30.848-19.602-19.368-45.456-30.243-72.8-30.622-17.133-.218-34.242 3.723-49.428 11.451-3.691 1.879-5.16 6.395-3.282 10.086 1.879 3.692 6.396 5.162 10.087 3.282 13.21-6.723 27.474-10.018 42.416-9.821 23.449.325 45.633 9.663 62.465 26.293 16.832 16.632 26.431 38.7 27.026 62.139.495 19.438-5.062 38.113-16.072 54.007-2.781 4.018-3.103 9.198-.839 13.521 2.259 4.31 6.687 6.987 11.557 6.987 10.159 0 18.424 8.265 18.424 18.424s-8.265 18.424-18.424 18.424h-28.635v-24.976c0-4.143-3.357-7.5-7.5-7.5s-7.5 3.357-7.5 7.5v24.976h-17.861v-24.976c0-4.143-3.357-7.5-7.5-7.5s-7.5 3.357-7.5 7.5v24.976h-17.86v-24.976c0-4.143-3.357-7.5-7.5-7.5s-7.5 3.357-7.5 7.5v24.976h-17.861v-24.976c0-4.143-3.357-7.5-7.5-7.5s-7.5 3.357-7.5 7.5v24.976h-28.636c-10.159 0-18.424-8.265-18.424-18.424s8.266-18.424 18.426-18.424c4.873 0 9.305-2.681 11.564-6.996 2.261-4.316 1.94-9.487-.837-13.494-10.542-15.213-16.114-33.074-16.114-51.653 0-24.08 9.4-47.266 27.073-64.684 2.95-2.907 2.984-7.656.077-10.606-2.908-2.951-7.657-2.985-10.606-.077-9.245 9.111-16.594 19.612-21.87 31.035h-34.989l-7.811-7.812c2.514-3.388 4.02-7.567 4.02-12.1 0-11.234-9.14-20.375-20.374-20.375s-20.375 9.14-20.375 20.375 9.141 20.375 20.375 20.375c1.073 0 2.118-.108 3.146-.268l12.609 12.609c1.407 1.407 3.314 2.197 5.304 2.197h32.519c-2.698 9.411-4.098 19.259-4.098 29.332 0 5.059.358 10.071 1.058 15.01h-31.612c-2.995-7.53-10.341-12.874-18.926-12.874-11.234 0-20.375 9.14-20.375 20.374s9.141 20.375 20.375 20.375c8.584 0 15.931-5.345 18.926-12.875h34.867c2.835 9.608 7.043 18.793 12.552 27.317-11.897 1.252-21.95 8.774-26.797 19.188h-18.489c-1.989 0-3.896.79-5.304 2.197l-11.604 11.604c-1.341-.279-2.729-.428-4.151-.428-11.234 0-20.375 9.141-20.375 20.375s9.141 20.374 20.375 20.374 20.374-9.14 20.374-20.374c0-4.236-1.302-8.172-3.522-11.435l7.313-7.314h12.299c.505 17.992 15.288 32.476 33.4 32.476h1.224c3.492 17.356 18.853 30.47 37.222 30.47h93.961c18.369 0 33.731-13.113 37.222-30.47h1.224c18.112 0 32.895-14.484 33.4-32.476h12.299l7.314 7.315c-2.221 3.263-3.522 7.199-3.522 11.434 0 11.234 9.14 20.374 20.374 20.374s20.374-9.14 20.374-20.374-9.14-20.375-20.374-20.375c-1.422 0-2.81.149-4.151.427l-11.605-11.605c-1.407-1.406-3.314-2.196-5.304-2.196h-18.489c-4.847-10.414-14.898-17.937-26.796-19.188 5.52-8.538 9.713-17.72 12.545-27.317h34.874c2.995 7.53 10.341 12.875 18.926 12.875 11.234 0 20.374-9.141 20.374-20.375s-9.14-20.374-20.374-20.374c-8.584 0-15.93 5.344-18.926 12.874h-31.622c.825-5.831 1.185-11.764 1.033-17.763-.231-9.097-1.631-18.014-4.109-26.579h32.564c1.99 0 3.897-.79 5.303-2.197zm15.757-38.09c2.963 0 5.374 2.411 5.374 5.375s-2.411 5.375-5.374 5.375-5.374-2.411-5.374-5.375 2.411-5.375 5.374-5.375zm-315.958 5.375c0-2.963 2.411-5.375 5.375-5.375 2.963 0 5.374 2.411 5.374 5.375s-2.411 5.375-5.374 5.375c-2.964-.001-5.375-2.412-5.375-5.375zm5.375 92.129c-2.964 0-5.375-2.411-5.375-5.375 0-2.963 2.411-5.374 5.375-5.374 2.963 0 5.374 2.411 5.374 5.374 0 2.964-2.411 5.375-5.374 5.375zm0 87.754c-2.964 0-5.375-2.411-5.375-5.374 0-2.964 2.411-5.375 5.375-5.375 2.963 0 5.374 2.411 5.374 5.375 0 2.962-2.411 5.374-5.374 5.374zm202.271 23.822h-93.96c-10.04 0-18.597-6.476-21.713-15.47h137.387c-3.117 8.994-11.673 15.47-21.714 15.47zm113.686-29.196c0 2.963-2.411 5.374-5.374 5.374s-5.374-2.411-5.374-5.374c0-2.964 2.411-5.375 5.374-5.375s5.374 2.411 5.374 5.375zm-5.374-93.129c2.963 0 5.374 2.411 5.374 5.374 0 2.964-2.411 5.375-5.374 5.375s-5.374-2.411-5.374-5.375c0-2.963 2.411-5.374 5.374-5.374z"/><path d="m380.823 119.398h-60.056c-1.989 0-3.896.79-5.304 2.197l-12.922 12.922c-2.929 2.929-2.929 7.678 0 10.606 1.465 1.464 3.385 2.197 5.304 2.197s3.839-.732 5.304-2.197l10.725-10.725h56.949c4.143 0 7.5-3.358 7.5-7.5s-3.357-7.5-7.5-7.5z"/><path d="m380.823 145.117h-32.103c-4.143 0-7.5 3.358-7.5 7.5s3.357 7.5 7.5 7.5h32.103c4.143 0 7.5-3.358 7.5-7.5s-3.357-7.5-7.5-7.5z"/><path d="m151.347 420.269 13.981-13.981c2.929-2.93 2.929-7.678 0-10.607-2.93-2.928-7.678-2.928-10.607 0l-11.784 11.785h-51.082c-4.143 0-7.5 3.357-7.5 7.5s3.357 7.5 7.5 7.5h54.188c1.989-.001 3.896-.791 5.304-2.197z"/><path d="m91.855 431.807c-4.143 0-7.5 3.357-7.5 7.5s3.357 7.5 7.5 7.5h29.807c4.143 0 7.5-3.357 7.5-7.5s-3.357-7.5-7.5-7.5z"/></g></g></svg>