<svg id="Capa_1" enable-background="new 0 0 512 512" height="512" viewBox="0 0 512 512" width="512" xmlns="http://www.w3.org/2000/svg"><g><path d="m352.229 504.5h-296.778c-10.164 0-18.403-8.239-18.403-18.403v-460.195c0-10.164 8.239-18.403 18.403-18.403h296.778c10.164 0 18.403 8.239 18.403 18.403v460.195c0 10.164-8.239 18.403-18.403 18.403z" fill="#738b95"/><path d="m352.229 7.5h-26.438c10.164 0 18.403 8.239 18.403 18.403v460.195c0 10.163-8.239 18.403-18.403 18.403h26.438c10.164 0 18.403-8.239 18.403-18.403v-460.196c0-10.163-8.239-18.402-18.403-18.402z" fill="#617881"/><path d="m274.331 48.328-9.159 17.564c-3.191 6.12-9.52 9.957-16.422 9.957h-89.82c-6.902 0-13.231-3.837-16.422-9.957l-9.159-17.564c-2.829-5.426-8.441-8.828-14.56-8.828h-32.128c-9.727 0-17.612 7.885-17.612 17.612v397.775c0 9.727 7.885 17.612 17.612 17.612h234.359c9.727 0 17.612-7.885 17.612-17.612v-397.775c0-9.727-7.885-17.612-17.612-17.612h-32.128c-6.12 0-11.732 3.402-14.561 8.828z" fill="#f4fbff"/><g><path d="m321.019 39.5h-25.438c9.727 0 17.612 7.885 17.612 17.613v397.775c0 9.727-7.885 17.613-17.612 17.613h25.438c9.727 0 17.612-7.885 17.612-17.613v-397.775c.001-9.728-7.885-17.613-17.612-17.613z" fill="#dfeaef"/></g><g><g><g><circle cx="265.551" cy="177.154" fill="#80e29d" r="13.539"/></g><g><circle cx="265.551" cy="334.93" fill="#80e29d" r="13.539"/></g></g><g><circle cx="270.187" cy="256.042" fill="#80e29d" r="13.539"/></g></g><g><g><g><circle cx="139.829" cy="177.154" fill="#80e29d" r="13.539"/></g><g><circle cx="139.829" cy="334.93" fill="#80e29d" r="13.539"/></g></g><g><circle cx="135.193" cy="256.042" fill="#80e29d" r="13.539"/></g></g><g><path d="m400.577 456.44 72.079-52.369c1.442-1.048 2.295-2.722 2.295-4.505v-102.874c0-3.075-2.493-5.568-5.568-5.568h-144.159c-3.075 0-5.568 2.493-5.568 5.568v102.875c0 1.782.853 3.457 2.295 4.505l72.08 52.369c1.952 1.417 4.594 1.417 6.546-.001z" fill="#70b9c6"/><path d="m469.383 291.124h-24.323v96.828c0 1.782-.853 3.457-2.295 4.505l-68.4 49.696 19.666 14.289c1.952 1.418 4.594 1.418 6.546 0l72.079-52.369c1.442-1.048 2.295-2.722 2.295-4.505v-102.876c0-3.075-2.492-5.568-5.568-5.568z" fill="#61aab7"/><g><path d="m425.076 405.249h-55.543c-2.275 0-4.12-1.844-4.12-4.12v-42.419c0-2.275 1.844-4.12 4.12-4.12h55.543c2.275 0 4.12 1.844 4.12 4.12v42.419c-.001 2.275-1.845 4.12-4.12 4.12z" fill="#f6e781"/><path d="m425.076 354.59h-19.996c2.275 0 4.12 1.844 4.12 4.12v42.419c0 2.275-1.844 4.12-4.12 4.12h19.995c2.275 0 4.12-1.844 4.12-4.12v-42.419c0-2.275-1.844-4.12-4.119-4.12z" fill="#f6e266"/></g></g><g><path d="m397.304 309.193c-13.309 0-24.137 10.828-24.137 24.137v13.761h-3.636c-6.407 0-11.619 5.212-11.619 11.619v42.419c0 6.407 5.212 11.62 11.619 11.62h55.544c6.407 0 11.619-5.213 11.619-11.62v-42.419c0-6.407-5.212-11.619-11.619-11.619h-3.635v-13.761c.001-13.309-10.827-24.137-24.136-24.137zm-9.137 24.137c0-5.038 4.099-9.137 9.137-9.137s9.137 4.099 9.137 9.137v13.761h-18.273v-13.761zm33.528 64.419h-48.782v-35.658h48.782z"/><path d="m474.952 347.097c4.143 0 7.5-3.357 7.5-7.5v-42.904c0-7.206-5.862-13.068-13.068-13.068h-91.251v-257.723c-.001-14.282-11.621-25.902-25.904-25.902h-296.778c-14.283 0-25.903 11.62-25.903 25.902v460.194c0 14.283 11.62 25.903 25.903 25.903h55.845c4.142 0 7.5-3.357 7.5-7.5s-3.358-7.5-7.5-7.5h-55.845c-6.012 0-10.903-4.892-10.903-10.903v-460.194c0-6.011 4.891-10.902 10.903-10.902h296.778c6.012 0 10.903 4.891 10.903 10.902v257.722h-17.001v-226.512c0-13.847-11.266-25.112-25.112-25.112h-32.128c-8.945 0-17.073 4.928-21.211 12.86l-9.159 17.563c-1.906 3.654-5.65 5.925-9.771 5.925h-89.819c-4.122 0-7.866-2.271-9.772-5.925l-9.159-17.563c-4.138-7.932-12.265-12.86-21.211-12.86h-32.128c-13.847 0-25.112 11.266-25.112 25.112v37.364c0 4.143 3.358 7.5 7.5 7.5s7.5-3.357 7.5-7.5v-37.364c-.001-5.576 4.535-10.112 10.112-10.112h32.128c3.336 0 6.368 1.838 7.911 4.796l9.159 17.563c4.5 8.629 13.341 13.989 23.072 13.989h89.819c9.731 0 18.571-5.36 23.072-13.989l9.158-17.562c1.544-2.959 4.575-4.797 7.911-4.797h32.128c5.576 0 10.112 4.536 10.112 10.112v141.254h-37.458l-10.218-10.219c1.975-3.204 3.135-6.962 3.135-10.994 0-11.601-9.438-21.038-21.039-21.038s-21.039 9.438-21.039 21.038 9.438 21.039 21.039 21.039c2.043 0 4.013-.307 5.882-.853l13.83 13.83c1.407 1.406 3.314 2.196 5.304 2.196h40.564v35.176h-41.311c-3.03-7.903-10.677-13.539-19.633-13.539-11.601 0-21.039 9.438-21.039 21.039s9.438 21.039 21.039 21.039c8.956 0 16.603-5.636 19.633-13.539h41.311v20.082h-5.907c-7.205 0-13.067 5.862-13.067 13.068v2.025h-21.59c-1.989 0-3.896.79-5.304 2.196l-13.83 13.83c-1.869-.546-3.839-.853-5.882-.853-11.601 0-21.039 9.438-21.039 21.038s9.438 21.039 21.039 21.039 21.039-9.438 21.039-21.039c0-4.032-1.16-7.789-3.135-10.993l10.218-10.219h18.483v85.85c0 4.172 2.015 8.124 5.387 10.571l13.588 9.872v34.877c0 5.576-4.536 10.112-10.112 10.112h-234.358c-5.576 0-10.112-4.536-10.112-10.112v-141.17h35.158l10.218 10.219c-1.975 3.204-3.135 6.961-3.135 10.993 0 11.601 9.438 21.039 21.039 21.039s21.039-9.438 21.039-21.039-9.438-21.038-21.039-21.038c-2.043 0-4.013.307-5.882.853l-13.83-13.83c-1.406-1.406-3.314-2.196-5.303-2.196h-38.266v-35.176h39.012c3.03 7.903 10.677 13.539 19.633 13.539 11.601 0 21.039-9.438 21.039-21.039s-9.438-21.039-21.039-21.039c-8.956 0-16.603 5.636-19.633 13.539h-39.012v-35.176h38.265c1.989 0 3.897-.79 5.303-2.196l13.83-13.83c1.869.546 3.839.853 5.882.853 11.601 0 21.039-9.438 21.039-21.039s-9.438-21.038-21.039-21.038-21.039 9.438-21.039 21.038c0 4.032 1.16 7.79 3.135 10.994l-10.218 10.219h-35.158v-73.902c0-4.143-3.358-7.5-7.5-7.5s-7.5 3.357-7.5 7.5v330.424c0 13.847 11.265 25.112 25.112 25.112h234.358c13.847 0 25.112-11.266 25.112-25.112v-23.978l17.001 12.352v42.835c0 6.012-4.892 10.903-10.903 10.903h-210.945c-4.142 0-7.5 3.357-7.5 7.5s3.358 7.5 7.5 7.5h210.946c14.283 0 25.903-11.62 25.903-25.903v-31.936l11.491 8.349c2.297 1.669 4.989 2.503 7.681 2.503s5.385-.835 7.681-2.504l72.076-52.367c3.376-2.449 5.391-6.402 5.391-10.573v-29.983c0-4.143-3.357-7.5-7.5-7.5s-7.5 3.357-7.5 7.5v28.998l-70.147 50.966-70.147-50.966v-99.958h140.295v40.973c-.001 4.141 3.356 7.499 7.499 7.499zm-215.44-169.944c0-3.329 2.709-6.038 6.039-6.038s6.039 2.709 6.039 6.038c0 3.33-2.709 6.039-6.039 6.039s-6.039-2.709-6.039-6.039zm10.675 84.928c-3.33 0-6.039-2.709-6.039-6.039s2.709-6.039 6.039-6.039 6.039 2.709 6.039 6.039-2.709 6.039-6.039 6.039zm-4.636 78.888c-3.33 0-6.039-2.709-6.039-6.039 0-3.329 2.709-6.038 6.039-6.038s6.039 2.709 6.039 6.038c0 3.33-2.709 6.039-6.039 6.039zm-119.683-6.039c0 3.33-2.709 6.039-6.039 6.039s-6.039-2.709-6.039-6.039c0-3.329 2.709-6.038 6.039-6.038s6.039 2.709 6.039 6.038zm-10.675-84.927c3.33 0 6.039 2.709 6.039 6.039s-2.709 6.039-6.039 6.039-6.039-2.709-6.039-6.039 2.709-6.039 6.039-6.039zm4.636-78.888c3.33 0 6.039 2.709 6.039 6.038 0 3.33-2.709 6.039-6.039 6.039s-6.039-2.709-6.039-6.039c0-3.329 2.709-6.038 6.039-6.038z"/><path d="m230.277 51.97c4.142 0 7.5-3.357 7.5-7.5s-3.358-7.5-7.5-7.5h-52.875c-4.142 0-7.5 3.357-7.5 7.5s3.358 7.5 7.5 7.5z"/></g></g></svg>