<svg id="Capa_1" enable-background="new 0 0 512 512" height="512" viewBox="0 0 512 512" width="512" xmlns="http://www.w3.org/2000/svg"><g><path d="m493.572 504.5h-475.143c-6.036 0-10.928-4.893-10.928-10.928v-322.773l21.182-12h451.185l24.634 12v322.773c-.002 6.035-4.894 10.928-10.93 10.928z" fill="#f4fbff"/><path d="m479.354 160.799v332.773c0 6.036-4.893 10.928-10.928 10.928h25.146c6.036 0 10.928-4.893 10.928-10.928v-322.773z" fill="#dfeaef"/><path d="m493.572 115.559h-475.143c-6.036 0-10.928 4.893-10.928 10.928v44.311h497v-44.311c-.001-6.035-4.893-10.928-10.929-10.928z" fill="#f6e781"/><path d="m493.572 115.559h-25.146c6.036 0 10.928 4.893 10.928 10.928v44.311h25.146v-44.311c0-6.035-4.892-10.928-10.928-10.928z" fill="#f6e266"/><g><path d="m382.788 381.955h-253.575c-4.733 0-8.569-3.837-8.569-8.569v-82.883c0-4.733 3.837-8.569 8.569-8.569h253.575c4.733 0 8.569 3.837 8.569 8.569v82.883c0 4.732-3.836 8.569-8.569 8.569z" fill="#738b95"/><path d="m382.788 281.934h-24.498c4.733 0 8.569 3.836 8.569 8.569v82.883c0 4.733-3.836 8.569-8.569 8.569h24.498c4.733 0 8.569-3.837 8.569-8.569v-82.883c0-4.732-3.836-8.569-8.569-8.569z" fill="#617881"/><path d="m302.646 473.42h-93.291c-5.379 0-9.74-4.361-9.74-9.74v-40.038c0-5.379 4.361-9.74 9.74-9.74h93.291c5.379 0 9.74 4.361 9.74 9.74v40.038c0 5.379-4.361 9.74-9.74 9.74z" fill="#80e29d"/><path d="m302.646 413.903h-22.54c5.379 0 9.74 4.361 9.74 9.74v40.038c0 5.379-4.361 9.74-9.74 9.74h22.54c5.379 0 9.74-4.361 9.74-9.74v-40.038c0-5.38-4.361-9.74-9.74-9.74z" fill="#78d090"/></g><path d="m255.738 199.309c16.501 11.093 36.326 16.618 59.631 16.312 16.257-.213 31.445-8.433 40.633-21.845 8.644-12.619 14.531-26.396 15.829-42.101l-31.99-10.834 65.057-55.616c2.159 33.549 2.176 65.967-3.482 95.393-7.388 38.424-40.292 67.025-79.393 68.504-40.263 1.523-73.168-10.805-103.263-28.423z" fill="#738b95"/><path d="m247.604 235.264 28.422-25.731c-7.249-2.594-14.011-6.003-20.289-10.223l-36.977 21.39c9.301 5.444 18.872 10.382 28.844 14.564z" fill="#617881"/><path d="m250.502 115.559h-39.269l6.171-26.972c5.541-24.22 6.122-49.568 1.696-74.084l-1.265-7.003h36.974l1.366 7.162c4.242 22.235 4.358 45.236.341 67.526z" fill="#738b95"/><path d="m254.146 95.341h-38.288l-4.625 20.218h39.269z" fill="#617881"/><g><path d="m32.828 143.179c0 4.143 3.357 7.5 7.5 7.5h54.622c4.143 0 7.5-3.357 7.5-7.5s-3.357-7.5-7.5-7.5h-54.622c-4.142 0-7.5 3.357-7.5 7.5z"/><path d="m382.788 274.435h-253.575c-8.86 0-16.069 7.208-16.069 16.068v82.883c0 8.86 7.209 16.069 16.069 16.069h253.575c8.86 0 16.069-7.209 16.069-16.069v-82.883c0-8.86-7.209-16.068-16.069-16.068zm1.069 98.951c0 .59-.479 1.069-1.069 1.069h-253.575c-.59 0-1.069-.479-1.069-1.069v-82.883c0-.589.479-1.068 1.069-1.068h253.575c.59 0 1.069.479 1.069 1.068z"/><path d="m205.22 324.444h-1.411l.998-.998c2.929-2.93 2.929-7.678 0-10.607-2.93-2.928-7.678-2.928-10.607 0l-.999.999v-1.413c0-4.143-3.357-7.5-7.5-7.5s-7.5 3.357-7.5 7.5v1.412l-.998-.998c-2.93-2.928-7.678-2.928-10.607 0-2.929 2.93-2.929 7.678 0 10.607l.998.998h-1.411c-4.143 0-7.5 3.357-7.5 7.5s3.357 7.5 7.5 7.5h1.412l-.999.999c-2.929 2.93-2.929 7.678 0 10.607 1.465 1.464 3.385 2.196 5.304 2.196s3.839-.732 5.304-2.196l.998-.998v1.411c0 4.143 3.357 7.5 7.5 7.5s7.5-3.357 7.5-7.5v-1.412l.999.999c1.465 1.464 3.385 2.196 5.304 2.196s3.839-.732 5.304-2.196c2.929-2.93 2.929-7.678 0-10.607l-.999-.999h1.412c4.143 0 7.5-3.357 7.5-7.5s-3.36-7.5-7.502-7.5z"/><path d="m275.52 324.444h-1.411l.998-.998c2.929-2.93 2.929-7.678 0-10.607-2.93-2.928-7.678-2.928-10.607 0l-.999.999v-1.413c0-4.143-3.357-7.5-7.5-7.5s-7.5 3.357-7.5 7.5v1.412l-.998-.998c-2.93-2.928-7.678-2.928-10.607 0-2.929 2.93-2.929 7.678 0 10.607l.998.998h-1.411c-4.143 0-7.5 3.357-7.5 7.5s3.357 7.5 7.5 7.5h1.412l-.999.999c-2.929 2.93-2.929 7.678 0 10.607 1.465 1.464 3.385 2.196 5.304 2.196s3.839-.732 5.304-2.196l.998-.998v1.411c0 4.143 3.357 7.5 7.5 7.5s7.5-3.357 7.5-7.5v-1.412l.999.999c1.465 1.464 3.385 2.196 5.304 2.196s3.839-.732 5.304-2.196c2.929-2.93 2.929-7.678 0-10.607l-.999-.999h1.412c4.143 0 7.5-3.357 7.5-7.5s-3.36-7.5-7.502-7.5z"/><path d="m345.819 324.444h-1.411l.998-.998c2.929-2.93 2.929-7.678 0-10.607-2.93-2.928-7.678-2.928-10.607 0l-.999.999v-1.413c0-4.143-3.357-7.5-7.5-7.5s-7.5 3.357-7.5 7.5v1.412l-.998-.998c-2.93-2.928-7.678-2.928-10.607 0-2.929 2.93-2.929 7.678 0 10.607l.998.998h-1.411c-4.143 0-7.5 3.357-7.5 7.5s3.357 7.5 7.5 7.5h1.412l-.999.999c-2.929 2.93-2.929 7.678 0 10.607 1.465 1.464 3.385 2.196 5.304 2.196s3.839-.732 5.304-2.196l.998-.998v1.411c0 4.143 3.357 7.5 7.5 7.5s7.5-3.357 7.5-7.5v-1.412l.999.999c1.465 1.464 3.385 2.196 5.304 2.196s3.839-.732 5.304-2.196c2.929-2.93 2.929-7.678 0-10.607l-.999-.999h1.412c4.143 0 7.5-3.357 7.5-7.5s-3.359-7.5-7.502-7.5z"/><path d="m302.646 406.402h-93.291c-9.506 0-17.239 7.734-17.239 17.24v40.037c0 9.506 7.733 17.24 17.239 17.24h17.851c4.143 0 7.5-3.357 7.5-7.5s-3.357-7.5-7.5-7.5h-17.851c-1.234 0-2.239-1.005-2.239-2.24v-40.037c0-1.235 1.005-2.24 2.239-2.24h93.291c1.235 0 2.24 1.005 2.24 2.24v40.037c0 1.235-1.005 2.24-2.24 2.24h-45.454c-4.143 0-7.5 3.357-7.5 7.5s3.357 7.5 7.5 7.5h45.454c9.506 0 17.24-7.734 17.24-17.24v-40.037c0-9.505-7.735-17.24-17.24-17.24z"/><path d="m493.572 108.059h-80.088c-.216-7.423-.579-15.169-1.103-23.314-.183-2.835-1.95-5.322-4.566-6.428-2.615-1.103-5.632-.636-7.791 1.208l-33.378 28.534h-107.172l4.423-24.541c4.101-22.756 4.078-45.798-.042-68.518h8.417c4.143 0 7.5-3.357 7.5-7.5s-3.357-7.5-7.5-7.5h-67.575c-4.143 0-7.5 3.357-7.5 7.5s3.357 7.5 7.5 7.5h6.871l.151.836c4.224 23.394 3.661 47.972-1.627 71.078l-4.838 21.145h-96.124c-4.143 0-7.5 3.357-7.5 7.5s3.357 7.5 7.5 7.5h239.969l-14.132 12.081c-2.051 1.753-3.002 4.472-2.491 7.12.51 2.649 2.403 4.819 4.958 5.685l26.206 8.875c-.362 2.173-.83 4.332-1.399 6.479h-347.241v-36.812c0-1.891 1.538-3.429 3.429-3.429h60.715c4.143 0 7.5-3.357 7.5-7.5s-3.357-7.5-7.5-7.5h-60.715c-10.161.001-18.429 8.267-18.429 18.429v367.084c0 10.162 8.267 18.429 18.429 18.429h475.144c10.161 0 18.428-8.267 18.428-18.429v-367.084c-.001-10.162-8.268-18.428-18.429-18.428zm-272.929 0 4.071-17.799c5.598-24.462 6.314-50.44 2.087-75.26h21.805l.203 1.067c4.096 21.47 4.205 43.269.327 64.79l-4.903 27.201h-23.59zm272.929 15c1.89 0 3.428 1.538 3.428 3.429v36.812h-85.388c1.401-12.242 2.094-25.541 2.094-40.24h79.866zm3.428 370.512c0 1.891-1.538 3.429-3.428 3.429h-475.143c-1.891 0-3.429-1.538-3.429-3.429v-315.272h341.486c-1.888 3.749-4.105 7.489-6.673 11.238-7.847 11.456-20.761 18.403-34.544 18.585-16.588.2-31.508-2.788-44.486-8.902l2.78-1.611c3.584-2.077 4.806-6.666 2.729-10.25-2.076-3.584-6.667-4.805-10.25-2.729-6.809 3.946-57.2 33.147-64.583 37.426-3.584 2.077-4.806 6.666-2.729 10.25 1.391 2.4 3.908 3.74 6.496 3.74 1.276 0 2.57-.326 3.754-1.012l9.797-5.677c32.9 18.595 63.85 27.393 96.526 27.392 2.324 0 4.66-.045 7.002-.133 24.454-.926 47.114-11.439 63.806-29.605 2.803-3.05 2.603-7.794-.448-10.597-3.05-2.803-7.794-2.603-10.597.448-13.964 15.196-32.902 23.991-53.327 24.764-29.782 1.134-57.953-5.599-87.747-21.075l21.558-12.471c17.024 10.281 37.136 15.344 59.917 15.039 18.655-.245 36.121-9.631 46.722-25.105 10.206-14.898 15.805-29.854 17.116-45.722.283-3.433-1.807-6.617-5.068-7.722l-19.495-6.603 43.481-37.171c1.074 25.365 1.055 69.41-8.479 92.889-1.56 3.838.288 8.212 4.126 9.771 3.839 1.56 8.213-.289 9.771-4.126 2.285-5.624 4.014-11.443 5.14-17.297.237-1.231.456-2.483.676-3.735h87.543z"/></g></g></svg>