<svg id="Capa_1" enable-background="new 0 0 512 512" height="512" viewBox="0 0 512 512" width="512" xmlns="http://www.w3.org/2000/svg"><g><path d="m493.572 475.471h-475.143c-6.036 0-10.928-4.893-10.928-10.928v-372.774l19.362-17.343h452.492l25.145 17.343v372.773c0 6.036-4.892 10.929-10.928 10.929z" fill="#f4fbff"/><path d="m479.354 74.426v390.116c0 6.036-4.893 10.928-10.928 10.928h25.146c6.036 0 10.928-4.893 10.928-10.928v-372.773z" fill="#dfeaef"/><path d="m493.572 36.529h-475.143c-6.036 0-10.928 4.893-10.928 10.928v44.311h497v-44.31c-.001-6.036-4.893-10.929-10.929-10.929z" fill="#f6e781"/><path d="m493.572 36.529h-25.146c6.036 0 10.928 4.893 10.928 10.928v44.311h25.146v-44.31c0-6.036-4.892-10.929-10.928-10.929z" fill="#f6e266"/><g><g><path d="m350.845 411.634h-165.641c-6.264 0-11.343-5.078-11.343-11.343v-151.287c0-6.264 5.078-11.343 11.343-11.343h165.642c6.264 0 11.343 5.078 11.343 11.343v151.287c-.001 6.264-5.079 11.343-11.344 11.343z" fill="#f6e781"/><path d="m350.845 237.661h-29.928c6.265 0 11.343 5.078 11.343 11.343v151.287c0 6.264-5.078 11.343-11.343 11.343h29.928c6.265 0 11.343-5.078 11.343-11.343v-151.287c0-6.265-5.078-11.343-11.343-11.343z" fill="#f6e266"/><path d="m297.334 189.768v8.973c0 2.968 2.406 5.374 5.374 5.374h19.252c2.968 0 5.374-2.406 5.374-5.374v-8.973c0-29.45-23.874-53.323-53.323-53.323h-11.974c-29.45 0-53.323 23.874-53.323 53.323v47.893h30v-47.893c0-12.881 10.442-23.323 23.323-23.323h11.974c12.881 0 23.323 10.442 23.323 23.323z" fill="#738b95"/><path d="m208.714 219.654h30v18.007h-30z" fill="#617881"/><path d="m287.336 313.326c0-11.388-9.858-20.474-21.506-19.19-8.896.981-16.067 8.198-17.006 17.098-.646 6.122 1.582 11.725 5.49 15.665 1.222 1.232 1.899 2.901 1.899 4.637v17.11c0 3.664 2.97 6.634 6.634 6.634h10.354c3.664 0 6.634-2.97 6.634-6.634v-17.11c0-1.731.671-3.4 1.89-4.628 3.464-3.487 5.611-8.28 5.611-13.582z" fill="#ecbe6b"/></g></g><g><path d="m32.828 64.149c0 4.143 3.357 7.5 7.5 7.5h64.622c4.143 0 7.5-3.357 7.5-7.5s-3.357-7.5-7.5-7.5h-64.622c-4.142 0-7.5 3.358-7.5 7.5z"/><path d="m493.572 29.029h-384.442c-4.143 0-7.5 3.357-7.5 7.5s3.357 7.5 7.5 7.5h384.442c1.89 0 3.428 1.538 3.428 3.429v36.812h-482v-36.812c0-1.891 1.538-3.429 3.429-3.429h60.715c4.143 0 7.5-3.357 7.5-7.5s-3.357-7.5-7.5-7.5h-60.715c-10.162 0-18.429 8.268-18.429 18.429v417.084c0 10.162 8.267 18.429 18.429 18.429h393.952c4.143 0 7.5-3.357 7.5-7.5s-3.357-7.5-7.5-7.5h-393.952c-1.891 0-3.429-1.538-3.429-3.429v-365.272h482v365.272c0 1.891-1.538 3.429-3.428 3.429h-51.205c-4.143 0-7.5 3.357-7.5 7.5s3.357 7.5 7.5 7.5h51.205c10.161 0 18.428-8.267 18.428-18.429v-417.084c0-10.161-8.267-18.429-18.428-18.429z"/><path d="m433.724 194.553c4.143 0 7.5-3.357 7.5-7.5s-3.357-7.5-7.5-7.5h-60.057c-1.989 0-3.896.79-5.304 2.196l-12.922 12.922c-2.929 2.93-2.929 7.678 0 10.607 1.465 1.464 3.385 2.196 5.304 2.196s3.839-.732 5.304-2.196l10.725-10.726h56.95z"/><path d="m401.62 220.272h32.104c4.143 0 7.5-3.357 7.5-7.5s-3.357-7.5-7.5-7.5h-32.104c-4.143 0-7.5 3.357-7.5 7.5s3.358 7.5 7.5 7.5z"/><path d="m137.768 411.757 13.981-13.982c2.929-2.929 2.929-7.678-.001-10.606-2.928-2.928-7.677-2.929-10.606.001l-11.784 11.785h-51.08c-4.143 0-7.5 3.357-7.5 7.5s3.357 7.5 7.5 7.5h54.187c1.988-.001 3.895-.791 5.303-2.198z"/><path d="m78.277 423.295c-4.143 0-7.5 3.357-7.5 7.5s3.357 7.5 7.5 7.5h29.807c4.143 0 7.5-3.357 7.5-7.5s-3.357-7.5-7.5-7.5z"/><path d="m262.848 362.78h10.354c7.794 0 14.135-6.341 14.135-14.135v-16.746c4.84-5.021 7.5-11.602 7.5-18.574 0-7.612-3.254-14.893-8.927-19.974-5.669-5.079-13.295-7.504-20.9-6.671-12.392 1.366-22.335 11.361-23.644 23.768-.837 7.939 1.839 15.734 7.348 21.449v16.748c-.001 7.794 6.34 14.135 14.134 14.135zm-6.565-50.759c.564-5.356 5.022-9.841 10.369-10.43 3.431-.379 6.716.664 9.249 2.933 2.5 2.24 3.935 5.448 3.935 8.802 0 3.123-1.219 6.07-3.428 8.295-2.626 2.641-4.072 6.162-4.072 9.916v16.244h-8.623v-16.244c0-3.747-1.446-7.269-4.075-9.921-2.508-2.528-3.732-6.026-3.355-9.595z"/><path d="m173.86 301.508c-4.143 0-7.5 3.357-7.5 7.5v91.283c0 10.39 8.453 18.843 18.844 18.843h165.642c10.39 0 18.843-8.453 18.843-18.843v-151.287c0-10.39-8.453-18.843-18.843-18.843h-104.632v-40.393c0-8.725 7.099-15.823 15.823-15.823h11.974c8.725 0 15.823 7.099 15.823 15.823v8.973c0 7.099 5.775 12.874 12.874 12.874h19.253c7.099 0 12.873-5.775 12.873-12.874v-8.973c0-33.538-27.285-60.823-60.823-60.823h-11.974c-33.538 0-60.823 27.285-60.823 60.823v40.393h-16.01c-10.391 0-18.844 8.453-18.844 18.843v30.018c0 4.143 3.357 7.5 7.5 7.5s7.5-3.357 7.5-7.5v-30.018c0-2.119 1.725-3.843 3.844-3.843h165.642c2.119 0 3.843 1.724 3.843 3.843v151.287c0 2.119-1.724 3.843-3.843 3.843h-165.642c-2.119 0-3.844-1.724-3.844-3.843v-91.283c0-4.143-3.357-7.5-7.5-7.5zm42.354-71.347v-40.393c0-25.267 20.557-45.823 45.823-45.823h11.974c25.267 0 45.823 20.557 45.823 45.823v6.847h-15v-6.847c0-16.996-13.827-30.823-30.823-30.823h-11.974c-16.996 0-30.823 13.827-30.823 30.823v40.393z"/></g></g></svg>