<svg id="Capa_1" enable-background="new 0 0 512.001 512.001" height="512" viewBox="0 0 512.001 512.001" width="512" xmlns="http://www.w3.org/2000/svg"><g><path d="m229.359 252.678-2.527 20.67-4.094 33.481c-1.605 13.128-9.739 24.554-21.618 30.368-41.278 20.203-67.448 62.148-67.448 108.104v40.273c0 10.453 8.474 18.926 18.926 18.926h206.805c10.453 0 18.926-8.474 18.926-18.926v-40.273c0-45.957-26.17-87.902-67.448-108.104-11.879-5.814-20.013-17.24-21.618-30.368l-4.093-33.479-2.528-20.672z" fill="#e28086"/><path d="m310.882 337.197c-11.879-5.814-20.013-17.24-21.619-30.368l-4.093-33.479-2.528-20.672h-53.283l-.856 7h34.121l2.528 20.672 4.093 33.479c1.605 13.128 9.739 24.554 21.618 30.368 41.278 20.203 67.448 62.148 67.448 108.104v40.273c0 4.523-1.591 8.671-4.238 11.926h5.329c10.453 0 18.926-8.474 18.926-18.926v-40.273c.002-45.956-26.169-87.901-67.446-108.104z" fill="#dd636e"/><path d="m288.997 304.653-6.355-51.975h-53.283l-6.355 51.975c21.998 16.775 43.996 16.775 65.993 0z" fill="#e2a770"/><path d="m256.001 277.655c-39.171 0-70.926-31.754-70.926-70.926v-45.457-58.327h141.851v31.947 71.837c.001 39.172-31.754 70.926-70.925 70.926z" fill="#f1d0a5"/><path d="m326.927 185.977v-51.084-31.947h-141.852v58.327 22.925c26.868 1.071 51.989-9.222 75.878-27.524 4.037-3.093 9.636-2.205 12.553 2.13 14.171 21.056 32.392 28.744 53.421 27.173z" fill="#f1b986"/><path d="m339.923 161.074c-26.546 6.158-49.4.137-66.416-25.148-2.917-4.335-8.516-5.223-12.553-2.13-27.039 20.716-55.655 31.181-86.597 26.509-14.597-2.204-25.473-15.778-25.473-31.815v-28.689c0-43.249 28.307-80.451 67.39-88.307 26.485-5.324 52.97-5.324 79.456 0 39.083 7.856 67.39 45.058 67.39 88.307v29.904c-.002 15.085-9.639 28.224-23.197 31.369z" fill="#738b95"/><g><path d="m295.729 11.493c-17.454-3.509-34.908-4.689-52.362-3.574 9.031.577 18.062 1.758 27.093 3.574 39.082 7.856 67.39 45.058 67.39 88.307v29.904c0 15.086-9.637 28.224-23.196 31.37-1.682.39-3.349.73-5.001 1.021 9.391 1.966 19.528 1.471 30.27-1.021 13.559-3.145 23.196-16.284 23.196-31.37v-29.903c-.001-43.249-28.308-80.451-67.39-88.308z" fill="#617881"/></g><g><path d="m258.477 467.988 21.018-10.122c1.565-.754 2.701-2.179 3.088-3.872l5.191-22.743c.386-1.693-.019-3.47-1.102-4.828l-14.545-18.239c-1.083-1.358-2.725-2.149-4.462-2.149h-23.328c-1.737 0-3.379.791-4.462 2.149l-14.545 18.239c-1.083 1.358-1.488 3.135-1.102 4.828l5.191 22.743c.386 1.693 1.523 3.118 3.088 3.872l21.018 10.122c1.564.753 3.387.753 4.952 0z" fill="#70b9c6"/></g><g><path d="m237.325 171.163c-6.277-3.432-13.278-3.498-20.244-.195-3.742 1.775-5.337 6.248-3.562 9.991 1.283 2.704 3.975 4.287 6.781 4.287 1.077 0 2.172-.233 3.21-.726 3.291-1.562 5.193-.975 6.621-.195 3.634 1.987 8.191.651 10.178-2.984 1.986-3.635.65-8.192-2.984-10.178z"/><path d="m295.302 171.162c-6.277-3.429-13.278-3.497-20.243-.194-3.742 1.775-5.337 6.248-3.562 9.991 1.283 2.704 3.975 4.287 6.781 4.287 1.077 0 2.172-.233 3.21-.726 3.29-1.562 5.194-.976 6.621-.194 3.64 1.985 8.193.649 10.179-2.986s.65-8.192-2.986-10.178z"/><path d="m276.69 228.076c-14.308 12.528-27.068 12.53-41.38 0-3.116-2.729-7.854-2.414-10.583.702s-2.414 7.854.702 10.583c10 8.757 20.286 13.135 30.571 13.135 10.286 0 20.572-4.378 30.572-13.135 3.116-2.729 3.43-7.468.701-10.584-2.729-3.115-7.467-3.429-10.583-.701z"/><path d="m277.993 403.512c-2.52-3.163-6.283-4.977-10.328-4.977h-23.328c-4.042 0-7.806 1.812-10.325 4.974l-14.546 18.239c-2.52 3.16-3.449 7.232-2.549 11.172l5.19 22.744c.899 3.939 3.503 7.204 7.146 8.959l21.02 10.123c1.82.876 3.774 1.314 5.729 1.314 1.954 0 3.908-.438 5.729-1.314 0 0 .001 0 .001-.001l21.018-10.122c3.642-1.753 6.246-5.019 7.146-8.96l5.191-22.742c.9-3.941-.029-8.015-2.551-11.174zm-2.531 47.971-19.462 9.373-19.462-9.373-4.807-21.06 13.469-16.889h21.6l13.47 16.89z"/><path d="m82.122 63.541c4.143 0 7.5-3.357 7.5-7.5v-41.041h41.041c4.143 0 7.5-3.357 7.5-7.5s-3.357-7.5-7.5-7.5h-48.541c-4.143 0-7.5 3.357-7.5 7.5v48.541c0 4.143 3.357 7.5 7.5 7.5z"/><path d="m429.879 0h-48.54c-4.143 0-7.5 3.357-7.5 7.5s3.357 7.5 7.5 7.5h41.04v41.041c0 4.143 3.357 7.5 7.5 7.5s7.5-3.357 7.5-7.5v-48.541c0-4.143-3.357-7.5-7.5-7.5z"/><path d="m138.163 307.221c0-4.143-3.357-7.5-7.5-7.5h-41.041v-41.04c0-4.143-3.357-7.5-7.5-7.5s-7.5 3.357-7.5 7.5v48.54c0 4.143 3.357 7.5 7.5 7.5h48.541c4.142 0 7.5-3.358 7.5-7.5z"/><path d="m429.879 251.181c-4.143 0-7.5 3.357-7.5 7.5v41.04h-41.04c-4.143 0-7.5 3.357-7.5 7.5s3.357 7.5 7.5 7.5h48.54c4.143 0 7.5-3.357 7.5-7.5v-48.54c0-4.143-3.357-7.5-7.5-7.5z"/><path d="m314.178 330.461c-9.637-4.717-16.168-13.892-17.471-24.542l-3.678-30.081c8.213-4.405 15.671-10.28 21.955-17.451 2.729-3.115 2.418-7.854-.697-10.584-3.117-2.73-7.855-2.417-10.584.697-12.06 13.762-29.447 21.654-47.703 21.654-32.998 0-60.179-25.333-63.145-57.57h126.291c-.39 4.226-1.193 8.404-2.42 12.477-1.195 3.966 1.051 8.149 5.017 9.345.722.218 1.45.321 2.167.321 3.223 0 6.2-2.094 7.178-5.338 1.652-5.479 2.694-11.11 3.119-16.805h71.403c4.143 0 7.5-3.357 7.5-7.5s-3.357-7.5-7.5-7.5h-71.184v-27.812c2.358-.367 4.754-.827 7.191-1.393 16.804-3.898 29.001-20.164 29.001-38.676v-29.902c0-46.878-30.874-87.109-73.412-95.66-27.343-5.496-55.069-5.496-82.412 0-26.223 5.271-48.775 22.759-61.876 47.978-1.91 3.676-.478 8.203 3.198 10.112 3.672 1.91 8.203.479 10.112-3.198 10.996-21.167 29.775-35.814 51.521-40.187 25.381-5.1 51.119-5.1 76.5 0 35.56 7.148 61.368 41.195 61.368 80.955v29.903c0 11.605-7.314 21.727-17.392 24.064-26.044 6.039-44.526-1.266-58.499-22.03-2.577-3.83-6.443-6.34-10.887-7.067-4.409-.72-8.835.402-12.449 3.171-24.161 18.511-50.827 29.594-80.915 25.047-10.885-1.645-19.094-12.134-19.094-24.399v-28.689c0-4.122.301-8.354.895-12.58.576-4.103-2.281-7.895-6.383-8.471-4.104-.578-7.895 2.282-8.471 6.383-.69 4.915-1.041 9.851-1.041 14.668v28.688c0 19.622 13.694 36.488 31.854 39.231 1.449.219 2.894.402 4.338.561v29.303h-71.183c-4.143 0-7.5 3.357-7.5 7.5s3.357 7.5 7.5 7.5h71.424c2.033 27.377 18.162 50.887 41.156 63.257l-3.678 30.077c-1.303 10.65-7.834 19.825-17.472 24.542-21.515 10.53-39.589 26.838-52.269 47.16-12.68 20.323-19.382 43.727-19.382 67.681v40.272c0 14.572 11.854 26.427 26.426 26.427h206.806c14.571 0 26.426-11.854 26.426-26.427v-40.272c0-23.954-6.702-47.357-19.382-67.681-12.677-20.321-30.751-36.63-52.267-47.159zm-121.603-161.597c24.532-.825 48.562-10.438 72.94-29.114.303-.232.609-.319.902-.276.321.053.621.274.866.64 13.255 19.697 30.735 29.945 52.143 30.639v26.833h-126.851zm63.425 116.291c7.751 0 15.374-1.15 22.647-3.349l2.366 19.353c-16.979 11.502-33.048 11.502-50.027.001l2.366-19.352c7.176 2.169 14.776 3.347 22.648 3.347zm114.83 200.419c0 6.301-5.126 11.427-11.426 11.427h-206.806c-6.3 0-11.426-5.126-11.426-11.427v-40.272c0-21.144 5.916-41.802 17.107-59.74 11.192-17.938 27.146-32.333 46.138-41.628 11.34-5.551 19.748-15.292 23.666-26.978 9.211 5.135 18.564 7.708 27.917 7.708 9.354 0 18.707-2.575 27.917-7.709 3.918 11.686 12.327 21.428 23.667 26.979 18.991 9.295 34.945 23.689 46.138 41.628 11.191 17.938 17.107 38.597 17.107 59.74v40.272z"/></g></g></svg>