<svg id="Capa_1" enable-background="new 0 0 512 512" height="512" viewBox="0 0 512 512" width="512" xmlns="http://www.w3.org/2000/svg"><g><path d="m493.572 475.47h-475.144c-6.036 0-10.928-4.893-10.928-10.928v-372.773l19.362-17.343h452.492l25.146 17.343v372.773c0 6.035-4.893 10.928-10.928 10.928z" fill="#f4fbff"/><path d="m479.354 74.426v390.116c0 6.036-4.893 10.928-10.928 10.928h25.146c6.036 0 10.928-4.893 10.928-10.928v-372.773z" fill="#dfeaef"/><path d="m493.572 36.529h-475.144c-6.036 0-10.928 4.893-10.928 10.928v44.311h497v-44.311c0-6.035-4.893-10.928-10.928-10.928z" fill="#f6e781"/><path d="m493.572 36.529h-25.146c6.036 0 10.928 4.893 10.928 10.928v44.311h25.146v-44.311c0-6.035-4.893-10.928-10.928-10.928z" fill="#f6e266"/><g><path d="m262.46 400.139 54.836-26.407c4.083-1.966 7.048-5.684 8.056-10.102l13.543-59.337c1.008-4.418-.05-9.054-2.875-12.597l-37.947-47.585c-2.825-3.543-7.11-5.606-11.641-5.606h-60.863c-4.531 0-8.816 2.063-11.641 5.606l-37.947 47.585c-2.825 3.543-3.883 8.179-2.875 12.597l13.543 59.337c1.008 4.418 3.973 8.136 8.056 10.102l54.836 26.407c4.081 1.966 8.837 1.966 12.919 0z" fill="#70b9c6"/><path d="m336.02 291.696-37.947-47.585c-2.825-3.543-7.11-5.606-11.641-5.606h-25.699l37.633 47.191c2.825 3.543 3.883 8.179 2.875 12.597l-13.543 59.337c-1.008 4.418-3.973 8.136-8.056 10.102l-48.698 23.452 18.596 8.956c4.083 1.966 8.838 1.966 12.921 0l54.836-26.407c4.083-1.966 7.048-5.684 8.056-10.102l13.543-59.337c1.008-4.419-.051-9.055-2.876-12.598z" fill="#61aab7"/><path d="m271.876 165.625h-31.752c-4.631 0-8.944 2.359-11.443 6.258l-14.601 22.788c-2.863 4.468-2.863 10.195 0 14.663l18.611 29.047h46.617l18.611-29.047c2.863-4.468 2.863-10.195 0-14.663l-14.601-22.788c-2.498-3.899-6.811-6.258-11.442-6.258z" fill="#738b95"/><path d="m297.92 194.672-14.601-22.788c-2.499-3.9-6.811-6.258-11.443-6.258h-26.967c4.631 0 8.944 2.359 11.443 6.258l14.601 22.788c2.863 4.469 2.863 10.195 0 14.663l-18.611 29.047h26.967l18.611-29.047c2.863-4.469 2.863-10.195 0-14.663z" fill="#617881"/></g><g><path d="m32.828 64.149c0 4.143 3.358 7.5 7.5 7.5h64.622c4.142 0 7.5-3.357 7.5-7.5s-3.358-7.5-7.5-7.5h-64.622c-4.142 0-7.5 3.358-7.5 7.5z"/><path d="m493.572 29.029h-384.443c-4.142 0-7.5 3.357-7.5 7.5s3.358 7.5 7.5 7.5h384.442c1.89 0 3.428 1.538 3.428 3.429v36.811h-481.999v-36.811c0-1.891 1.538-3.429 3.428-3.429h60.714c4.142 0 7.5-3.357 7.5-7.5s-3.358-7.5-7.5-7.5h-60.714c-10.161 0-18.428 8.268-18.428 18.429v417.084c0 10.162 8.267 18.429 18.428 18.429h393.952c4.143 0 7.5-3.357 7.5-7.5s-3.357-7.5-7.5-7.5h-393.952c-1.89 0-3.428-1.538-3.428-3.429v-365.274h482v365.273c0 1.891-1.538 3.429-3.428 3.429h-51.205c-4.143 0-7.5 3.357-7.5 7.5s3.357 7.5 7.5 7.5h51.205c10.161 0 18.428-8.267 18.428-18.429v-417.083c0-10.161-8.267-18.429-18.428-18.429z"/><path d="m399.503 158.582h-60.057c-1.989 0-3.896.79-5.304 2.196l-12.921 12.922c-2.929 2.93-2.929 7.678 0 10.607 1.465 1.464 3.385 2.196 5.304 2.196s3.839-.732 5.304-2.196l10.725-10.726h56.95c4.143 0 7.5-3.357 7.5-7.5s-3.358-7.499-7.501-7.499z"/><path d="m407.003 191.802c0-4.143-3.357-7.5-7.5-7.5h-32.103c-4.143 0-7.5 3.357-7.5 7.5s3.357 7.5 7.5 7.5h32.103c4.143 0 7.5-3.358 7.5-7.5z"/><path d="m122.398 359.52 13.982-13.981c2.929-2.929 2.929-7.678 0-10.606-2.929-2.93-7.678-2.929-10.606-.001l-11.785 11.785h-51.08c-4.142 0-7.5 3.357-7.5 7.5s3.358 7.5 7.5 7.5h54.187c1.988 0 3.895-.79 5.302-2.197z"/><path d="m62.908 371.057c-4.142 0-7.5 3.357-7.5 7.5s3.358 7.5 7.5 7.5h29.807c4.142 0 7.5-3.357 7.5-7.5s-3.358-7.5-7.5-7.5z"/><path d="m374.554 306.34c2.197 3.534 6.83 4.585 10.33 2.408 3.518-2.188 4.596-6.812 2.408-10.33l-28.657-46.076c-2.154-3.463-6.68-4.572-10.188-2.493l-24.599 14.556-19.911-24.968c-2.992-3.751-7.019-6.377-11.516-7.618l11.812-18.438c4.429-6.911 4.429-15.844.001-22.755l-14.602-22.789c-3.897-6.081-10.536-9.712-17.758-9.712h-31.751c-7.223 0-13.861 3.631-17.758 9.713l-14.601 22.788c-4.429 6.911-4.429 15.844 0 22.755l11.813 18.438c-4.497 1.241-8.524 3.867-11.515 7.618l-19.912 24.968-24.599-14.556c-3.509-2.079-8.035-.97-10.188 2.493l-28.657 46.076c-2.188 3.518-1.11 8.142 2.408 10.33 3.504 2.179 8.134 1.122 10.33-2.408l24.782-39.847 16.481 9.752-8.593 10.775c-4.272 5.357-5.848 12.262-4.323 18.941l5.486 24.034-20.888 11.947c-2.715 1.554-4.181 4.628-3.679 7.715l8.514 52.344c.666 4.094 4.524 6.863 8.607 6.198 4.088-.665 6.864-4.518 6.199-8.606l-7.679-47.211 12.416-7.101 4.569 20.017c1.525 6.682 5.94 12.218 12.114 15.191l11.137 5.362c3.732 1.795 8.214.227 10.011-3.504 1.797-3.732.229-8.215-3.503-10.012l-11.137-5.362c-2.037-.98-3.494-2.808-3.998-5.014-4.896-21.45-8.719-38.2-13.543-59.337-.503-2.205.017-4.483 1.427-6.252l37.948-47.584c1.41-1.769 3.516-2.782 5.777-2.782h60.863c2.262 0 4.367 1.014 5.778 2.782l37.946 47.584c1.411 1.769 1.931 4.047 1.428 6.252-4.763 20.867-8.533 37.385-13.543 59.336-.504 2.206-1.961 4.034-3.999 5.016l-54.835 26.406c-2.037.982-4.376.981-6.413.001l-16.682-8.033c-3.732-1.802-8.214-.229-10.011 3.503-1.797 3.731-.229 8.214 3.503 10.011l16.682 8.034c3.087 1.486 6.4 2.229 9.714 2.229s6.628-.743 9.715-2.229l54.835-26.406c6.173-2.973 10.589-8.51 12.114-15.191l4.569-20.017 12.416 7.101-7.679 47.211c-.665 4.089 2.11 7.941 6.198 8.606 4.094.666 7.942-2.115 8.606-6.198l8.514-52.344c.503-3.087-.964-6.161-3.679-7.715l-20.888-11.947 5.485-24.033c1.525-6.68-.05-13.584-4.323-18.942l-8.593-10.775 16.481-9.752zm-154.159-107.622 4.947-7.721 2.453 2.762c2.747 3.091 7.488 3.381 10.588.625 3.097-2.751 3.377-7.491.626-10.588l-5.26-5.921 1.247-1.946c1.125-1.756 3.042-2.805 5.128-2.805h31.751c2.086 0 4.003 1.049 5.128 2.805l1.247 1.946-5.26 5.92c-2.752 3.097-2.472 7.837.625 10.588 3.108 2.762 7.849 2.459 10.588-.625l2.454-2.762 4.947 7.721c1.278 1.996 1.278 4.575-.001 6.571l-16.397 25.593h-38.414l-16.398-25.593c-1.278-1.995-1.278-4.574.001-6.57z"/><path d="m275.233 359.648c4.143 0 7.5-3.357 7.5-7.5s-3.357-7.5-7.5-7.5h-38.466c-4.142 0-7.5 3.357-7.5 7.5s3.358 7.5 7.5 7.5z"/></g></g></svg>