<svg id="Capa_1" enable-background="new 0 0 512 512" height="512" viewBox="0 0 512 512" width="512" xmlns="http://www.w3.org/2000/svg"><g><path d="m440.558 407.456h-422.129c-6.036 0-10.928-4.893-10.928-10.928v-312.774l21.182-12h398.171l24.634 12v312.773c-.002 6.036-4.894 10.929-10.93 10.929z" fill="#f4fbff"/><path d="m426.34 73.754v322.773c0 6.036-4.893 10.928-10.928 10.928h25.146c6.036 0 10.928-4.893 10.928-10.928v-312.773z" fill="#dfeaef"/><path d="m440.558 28.515h-422.129c-6.036 0-10.928 4.893-10.928 10.928v44.311h443.986v-44.311c-.001-6.036-4.893-10.928-10.929-10.928z" fill="#80e29d"/><path d="m440.558 28.515h-25.146c6.036 0 10.928 4.893 10.928 10.928v44.311h25.146v-44.311c0-6.036-4.892-10.928-10.928-10.928z" fill="#78d090"/><path d="m376.066 370.317h-293.146c-4.484 0-8.12-3.635-8.12-8.12v-21.808c0-4.484 3.635-8.12 8.12-8.12h293.146c4.484 0 8.12 3.635 8.12 8.12v21.808c0 4.484-3.635 8.12-8.12 8.12z" fill="#d3f9e2"/><path d="m287.628 370.317h-204.708c-4.484 0-8.12-3.635-8.12-8.12v-21.808c0-4.484 3.635-8.12 8.12-8.12h204.707v38.048z" fill="#80e29d"/><path d="m264.193 332.27h23.435v38.047h-23.435z" fill="#78d090"/><path d="m430.126 482.415 72.079-52.369c1.442-1.048 2.295-2.722 2.295-4.505v-102.875c0-3.075-2.493-5.568-5.568-5.568h-144.159c-3.075 0-5.568 2.493-5.568 5.568v102.875c0 1.782.853 3.457 2.295 4.505l72.079 52.369c1.953 1.417 4.595 1.417 6.547 0z" fill="#70b9c6"/><path d="m498.932 317.098h-24.323v96.828c0 1.782-.853 3.457-2.295 4.505l-68.4 49.696 19.666 14.289c1.952 1.418 4.594 1.418 6.546 0l72.079-52.369c1.442-1.048 2.295-2.722 2.295-4.505v-102.876c0-3.075-2.493-5.568-5.568-5.568z" fill="#61aab7"/><g><path d="m454.624 431.223h-55.543c-2.275 0-4.12-1.844-4.12-4.12v-42.419c0-2.275 1.844-4.12 4.12-4.12h55.543c2.275 0 4.12 1.844 4.12 4.12v42.419c0 2.275-1.844 4.12-4.12 4.12z" fill="#f6e781"/><path d="m454.624 380.565h-19.995c2.275 0 4.12 1.844 4.12 4.12v42.419c0 2.275-1.844 4.12-4.12 4.12h19.995c2.275 0 4.12-1.844 4.12-4.12v-42.419c0-2.276-1.844-4.12-4.12-4.12z" fill="#f6e266"/></g><g><path d="m32.828 56.134c0 4.143 3.357 7.5 7.5 7.5h54.622c4.143 0 7.5-3.357 7.5-7.5s-3.357-7.5-7.5-7.5h-54.622c-4.142 0-7.5 3.358-7.5 7.5z"/><path d="m426.853 335.167c-13.309 0-24.137 10.828-24.137 24.137v13.761h-3.635c-6.407 0-11.62 5.212-11.62 11.619v42.419c0 6.407 5.213 11.62 11.62 11.62h55.543c6.407 0 11.62-5.213 11.62-11.62v-42.419c0-6.407-5.213-11.619-11.62-11.619h-3.635v-13.761c0-13.308-10.828-24.137-24.136-24.137zm-9.137 24.137c0-5.038 4.099-9.137 9.137-9.137s9.137 4.099 9.137 9.137v13.761h-18.273v-13.761zm33.528 64.419h-48.783v-35.658h48.783z"/><path d="m504.5 373.071c4.143 0 7.5-3.357 7.5-7.5v-42.904c0-7.206-5.862-13.068-13.067-13.068h-39.946v-270.156c0-10.161-8.267-18.429-18.429-18.429h-331.428c-4.143 0-7.5 3.357-7.5 7.5s3.357 7.5 7.5 7.5h331.428c1.891 0 3.429 1.538 3.429 3.429v36.812h-428.987v-36.812c0-1.891 1.538-3.429 3.429-3.429h60.715c4.143 0 7.5-3.357 7.5-7.5s-3.357-7.5-7.5-7.5h-60.715c-10.162 0-18.429 8.268-18.429 18.429v357.085c0 10.161 8.267 18.428 18.429 18.428h323.276v10.586c0 4.171 2.015 8.124 5.388 10.571l72.078 52.369c2.297 1.669 4.989 2.504 7.682 2.504 2.691 0 5.384-.835 7.682-2.504l72.076-52.367c3.375-2.449 5.39-6.401 5.39-10.573v-29.983c0-4.143-3.357-7.5-7.5-7.5s-7.5 3.357-7.5 7.5v28.998l-70.146 50.966-70.148-50.966v-99.958h140.293v40.973c0 4.141 3.357 7.499 7.5 7.499zm-421.58-10.254c-.342 0-.619-.278-.619-.62v-21.808c0-.342.277-.62.619-.62h197.208v23.048zm212.208-23.048h46.577v23.048h-46.577zm59.645-30.171c-7.206 0-13.068 5.862-13.068 13.068v2.103h-258.785c-8.612 0-15.619 7.007-15.619 15.62v21.808c0 8.613 7.007 15.62 15.619 15.62h258.785v22.139h-323.276c-1.891 0-3.429-1.538-3.429-3.428v-305.274h428.986v218.344z"/><path d="m243.268 139.533 9.322-7.284c3.264-2.551 3.842-7.264 1.292-10.528-2.552-3.264-7.266-3.842-10.528-1.292l-24.758 19.345c-1.661 1.299-2.699 3.236-2.86 5.339-.16 2.102.571 4.175 2.016 5.711l21.529 22.884c2.844 3.02 7.59 3.157 10.603.323 3.017-2.839 3.161-7.585.323-10.603l-8.371-8.897c26.888 5.698 47.128 29.613 47.128 58.173 0 32.791-26.678 59.469-59.47 59.469-32.791 0-59.469-26.678-59.469-59.469 0-11.919 3.51-23.414 10.151-33.245 2.318-3.432 1.416-8.095-2.017-10.413-3.432-2.318-8.094-1.416-10.413 2.017-8.322 12.319-12.722 26.719-12.722 41.642 0 41.062 33.406 74.469 74.469 74.469s74.47-33.406 74.47-74.469c0-36.355-26.194-66.69-60.695-73.172z"/></g></g></svg>