<svg id="Capa_1" enable-background="new 0 0 512.013 512.013" height="512" viewBox="0 0 512.013 512.013" width="512" xmlns="http://www.w3.org/2000/svg"><g><path d="m229.365 252.69-2.527 20.67-4.094 33.481c-1.605 13.128-9.739 24.554-21.618 30.368-41.278 20.203-67.448 62.148-67.448 108.104v40.273c0 10.453 8.474 18.926 18.926 18.926h206.806c10.453 0 18.926-8.474 18.926-18.926v-40.273c0-45.957-26.17-87.902-67.448-108.104-11.879-5.814-20.013-17.24-21.618-30.368l-4.093-33.479-2.527-20.672z" fill="#738b95"/><path d="m310.888 337.209c-11.879-5.814-20.013-17.24-21.619-30.368l-4.093-33.479-2.528-20.672h-53.283l-.856 7h34.121l2.528 20.672 4.093 33.479c1.605 13.128 9.739 24.554 21.618 30.368 41.278 20.203 67.448 62.148 67.448 108.104v40.273c0 4.523-1.591 8.671-4.238 11.926h5.329c10.453 0 18.926-8.474 18.926-18.926v-40.273c.002-45.956-26.169-87.901-67.446-108.104z" fill="#617881"/><path d="m256.007 96.794-117.946 47.119s-3.39 105.15 61.374 152.121c33.616 24.381 79.527 24.381 113.143 0 64.764-46.971 61.374-152.121 61.374-152.121z" fill="#617881"/><path d="m373.365 162.591c.817-11.471.587-18.679.587-18.679l-117.945-47.118-117.946 47.119s-.23 7.207.587 18.679c39.119-8.581 78.239-12.877 117.359-12.877 39.119-.001 78.239 4.295 117.358 12.876z" fill="#475959"/><path d="m226.838 273.36-4.094 33.481c-.062.505-.151 1.003-.232 1.503 21.567 7.955 45.421 7.955 66.989 0-.081-.5-.17-.998-.232-1.503l-4.094-33.479-2.528-20.672h-53.283z" fill="#e2a770"/><path d="m256.007 277.668c-39.171 0-70.926-31.754-70.926-70.926v-45.457-58.327h141.851v31.947 71.837c.001 39.171-31.754 70.926-70.925 70.926z" fill="#f1d0a5"/><path d="m185.081 102.958v51.473c23.642-3.134 47.284-4.717 70.926-4.717s47.284 1.583 70.926 4.717v-19.526-31.947z" fill="#f1b986"/><path d="m252.831 227.35c-8.249-2.597-19.11-1.357-27.237.291.157 13.775 11.367 24.895 25.179 24.895h10.469c13.91 0 25.187-11.276 25.187-25.187 0-2.615-.399-5.138-1.139-7.509-9.067 6.028-20.977 11.125-32.459 7.51z" fill="#e28086"/><path d="m256.007 127.898c-39.315 0-78.631 5.338-117.946 16.014 9.391-66.887 37.713-116.053 99.579-133.823 11.96-3.435 24.774-3.435 36.733 0 61.866 17.77 90.188 66.937 99.579 133.823-39.315-10.676-78.63-16.014-117.945-16.014z" fill="#738b95"/><g><path d="m250.35 10.089c59.989 17.23 88.436 63.982 98.67 127.783 8.311 1.78 16.622 3.783 24.933 6.04-9.391-66.887-37.713-116.053-99.579-133.823-9.865-2.833-20.31-3.323-30.378-1.483 2.137.391 4.259.881 6.354 1.483z" fill="#617881"/></g><path d="m322.138 504.513h-132.262l-18.337-84.486c-1.886-8.689 4.734-16.899 13.625-16.899h141.685c8.891 0 15.511 8.21 13.625 16.899z" fill="#b4d0d5"/><path d="m326.849 403.127h-24.483c8.891 0 15.511 8.21 13.625 16.899l-18.337 84.486h24.483l18.336-84.486c1.887-8.689-4.732-16.899-13.624-16.899z" fill="#9bb9c1"/><path d="m248.086 475.688-9.917-9.917c-4.377-4.377-4.377-11.473 0-15.85l9.917-9.917c4.377-4.377 11.473-4.377 15.85 0l9.917 9.917c4.377 4.377 4.377 11.473 0 15.85l-9.917 9.917c-4.377 4.376-11.474 4.376-15.85 0z" fill="#617881"/><g><path d="m219.16 186.239 8.59 5c1.188.691 2.485 1.02 3.767 1.02 2.582 0 5.096-1.335 6.488-3.728 2.084-3.58.871-8.172-2.708-10.255l-8.59-5c-3.582-2.085-8.171-.872-10.255 2.708s-.871 8.172 2.708 10.255z"/><path d="m280.497 192.258c1.281 0 2.579-.328 3.766-1.019l8.591-5c3.58-2.084 4.793-6.675 2.71-10.255-2.085-3.581-6.677-4.792-10.255-2.71l-8.591 5c-3.58 2.084-4.793 6.675-2.71 10.255 1.393 2.394 3.906 3.729 6.489 3.729z"/><path d="m218.094 227.726c.201 17.816 14.861 32.311 32.678 32.311h10.469c18.023 0 32.687-14.663 32.687-32.687 0-3.32-.498-6.599-1.479-9.744-.703-2.254-2.427-4.045-4.652-4.834-2.225-.788-4.691-.484-6.659.823-6.895 4.583-17.015 9.443-26.053 6.602-7.931-2.498-18.354-2.467-30.98.094-3.529.714-6.052 3.835-6.011 7.435zm32.484 6.777c8.459 2.665 17.87 1.851 27.677-2.313-2.11 7.407-8.938 12.847-17.014 12.847h-10.469c-7.434 0-13.851-4.663-16.448-11.218 6.664-.788 12.293-.563 16.254.684z"/><path d="m232.865 444.618c-7.292 7.294-7.292 19.161 0 26.456l9.917 9.917c3.534 3.533 8.231 5.479 13.229 5.479s9.694-1.945 13.229-5.479l9.917-9.917c7.294-7.294 7.294-19.163-.001-26.457l-9.916-9.916c-7.295-7.294-19.163-7.294-26.456 0zm20.524.691c.723-.724 1.672-1.085 2.621-1.085s1.898.362 2.622 1.085l9.916 9.916c1.446 1.445 1.446 3.797 0 5.242l-9.917 9.917c-.944.945-2.048 1.086-2.621 1.086s-1.677-.141-2.621-1.086l-9.917-9.916c-1.445-1.446-1.445-3.798-.001-5.243z"/><path d="m366.454 377.634c-12.68-20.322-30.754-36.631-52.27-47.161-7.472-3.657-13.063-10-15.812-17.627 6.506-2.905 12.741-6.484 18.61-10.741 27.979-20.293 47.996-54.214 57.887-98.098 2.622-11.632 4.214-22.296 5.173-31.347 1.986-18.742.793-37.701-3.543-56.043-14.49-61.294-47.395-98.611-100.055-113.737-13.369-3.84-27.505-3.841-40.874.001-17.029 4.891-32.262 12.317-45.282 22.074-3.074 2.303-4.152 6.569-2.227 9.892 2.302 3.974 7.464 4.939 11.021 2.262 11.599-8.734 25.269-15.399 40.628-19.812 10.482-3.012 21.58-3.122 32.073-.148 28.489 8.074 50.044 23.028 65.911 45.728 12.957 18.538 21.849 41.812 27.054 70.906-12.036-2.959-24.115-5.421-36.205-7.403-.285-.062-.575-.111-.871-.141-23.925-3.876-47.893-5.843-71.665-5.842h-.011c-23.768 0-47.732 1.967-71.653 5.842-.297.029-.588.078-.875.141-12.089 1.982-24.167 4.444-36.202 7.403 5.771-32.225 16.098-57.406 31.431-76.741 2.574-3.245 2.029-7.963-1.216-10.536-3.246-2.575-7.963-2.03-10.536 1.216-15.225 19.199-24.208 41.931-29.43 60.362-5.503 19.425-7.294 39.703-5.598 59.821.924 10.958 2.509 24.042 5.227 36.101 9.89 43.884 29.907 77.805 57.887 98.098 5.869 4.256 12.103 7.835 18.61 10.741-2.749 7.627-8.34 13.97-15.812 17.627-21.516 10.53-39.59 26.839-52.271 47.161-12.68 20.323-19.382 43.726-19.382 67.68v40.272c0 14.595 11.832 26.427 26.427 26.427h206.807c14.595 0 26.426-11.831 26.426-26.426v-40.273c0-23.953-6.703-47.357-19.382-67.679zm-135.703-74.479 2.608-21.335c7.175 2.169 14.775 3.348 22.648 3.348 7.82 0 15.429-1.17 22.646-3.345l2.609 21.332c-16.886 4.978-34.199 4.808-50.511 0zm25.247-167.756h.01c21.035 0 42.236 1.595 63.425 4.741v59.46c0 4.143 3.357 7.5 7.5 7.5s7.5-3.357 7.5-7.5v-56.974c10.691 1.96 21.368 4.317 32.01 7.067-.436 21.765-5.683 102.132-58.267 140.27-3.979 2.886-8.157 5.406-12.489 7.569l-2.649-21.66c17.165-9.196 30.726-24.675 37.263-44.013 1.326-3.924-.78-8.181-4.704-9.507-3.918-1.321-8.18.78-9.507 4.704-5.79 17.13-18.393 30.519-34.18 37.582-.025.011-.05.021-.074.032-7.958 3.549-16.719 5.498-25.829 5.498-34.973 0-63.425-28.452-63.425-63.425v-66.603c21.185-3.146 42.382-4.741 63.416-4.741zm-110.42 14.292c10.639-2.749 21.314-5.106 32.004-7.066v64.117c0 29.858 16.777 55.866 41.396 69.11l-2.65 21.678c-4.332-2.162-8.51-4.683-12.489-7.568-52.486-38.066-57.804-118.493-58.261-140.271zm225.258 335.895c0 6.301-5.126 11.427-11.426 11.427h-27.97l16.363-75.396c1.383-6.37-.171-12.933-4.262-18.007-4.091-5.073-10.175-7.983-16.692-7.983h-67.861c-4.143 0-7.5 3.357-7.5 7.5s3.357 7.5 7.5 7.5h67.861c2.681 0 4.293 1.503 5.016 2.398.722.896 1.849 2.79 1.28 5.41l-17.054 78.577h-120.169l-17.055-78.576c-.568-2.621.559-4.516 1.281-5.411s2.335-2.398 5.016-2.398h43.837c4.143 0 7.5-3.357 7.5-7.5s-3.357-7.5-7.5-7.5h-43.837c-6.518 0-12.602 2.909-16.692 7.982-4.091 5.074-5.645 11.637-4.263 18.008l16.364 75.396h-27.969c-6.301 0-11.427-5.126-11.427-11.427v-40.272c0-21.144 5.916-41.801 17.108-59.739s27.146-32.334 46.138-41.629c11.017-5.393 19.262-14.744 23.316-25.989 17.552 4.925 37.559 5.324 56.534 0 4.054 11.245 12.299 20.596 23.317 25.989 18.99 9.295 34.944 23.69 46.137 41.629 11.191 17.938 17.107 38.596 17.107 59.739v40.272z"/></g></g></svg>