<svg id="Capa_1" enable-background="new 0 0 512 512" height="512" viewBox="0 0 512 512" width="512" xmlns="http://www.w3.org/2000/svg"><g><path d="m493.572 475.471h-475.143c-6.036 0-10.928-4.893-10.928-10.928v-372.774l19.362-17.343h452.492l25.145 17.343v372.773c0 6.036-4.892 10.929-10.928 10.929z" fill="#f4fbff"/><path d="m479.354 74.426v390.116c0 6.036-4.893 10.928-10.928 10.928h25.146c6.036 0 10.928-4.893 10.928-10.928v-372.773z" fill="#dfeaef"/><path d="m493.572 36.529h-475.143c-6.036 0-10.928 4.893-10.928 10.928v44.311h497v-44.31c-.001-6.036-4.893-10.929-10.929-10.929z" fill="#80e29d"/><path d="m493.572 36.529h-25.146c6.036 0 10.928 4.893 10.928 10.928v44.311h25.146v-44.31c0-6.036-4.892-10.929-10.928-10.929z" fill="#78d090"/><g><g><path d="m311.961 409.904h-165.642c-6.264 0-11.343-5.078-11.343-11.343v-151.287c0-6.264 5.078-11.343 11.343-11.343h165.642c6.264 0 11.343 5.078 11.343 11.343v151.287c-.001 6.264-5.079 11.343-11.343 11.343z" fill="#f6e781"/><path d="m311.961 235.931h-29.928c6.265 0 11.343 5.078 11.343 11.343v151.287c0 6.264-5.078 11.343-11.343 11.343h29.928c6.265 0 11.343-5.078 11.343-11.343v-151.287c-.001-6.265-5.079-11.343-11.343-11.343z" fill="#f6e266"/><path d="m258.45 188.038v8.973c0 2.968 2.406 5.374 5.374 5.374h19.252c2.968 0 5.374-2.406 5.374-5.374v-8.973c0-29.45-23.874-53.323-53.323-53.323h-11.974c-29.45 0-53.323 23.874-53.323 53.323v47.893h30v-47.893c0-12.881 10.442-23.323 23.323-23.323h11.974c12.881 0 23.323 10.442 23.323 23.323z" fill="#738b95"/><path d="m169.83 217.924h30v18.007h-30z" fill="#617881"/><path d="m248.451 311.596c0-11.388-9.858-20.474-21.506-19.19-8.896.981-16.067 8.198-17.006 17.098-.646 6.122 1.582 11.725 5.49 15.665 1.222 1.232 1.899 2.901 1.899 4.637v17.11c0 3.664 2.97 6.634 6.634 6.634h10.354c3.664 0 6.634-2.97 6.634-6.634v-17.11c0-1.731.671-3.4 1.89-4.628 3.464-3.487 5.611-8.279 5.611-13.582z" fill="#ecbe6b"/></g><circle cx="319.155" cy="374.654" fill="#80e29d" r="57.87"/><path d="m319.155 316.784c-5.839 0-11.473.874-16.787 2.482 23.773 7.196 41.083 29.267 41.083 55.388s-17.311 48.192-41.083 55.388c5.314 1.609 10.948 2.482 16.787 2.482 31.961 0 57.87-25.909 57.87-57.87 0-31.96-25.91-57.87-57.87-57.87z" fill="#78d090"/></g><g><path d="m32.828 64.149c0 4.143 3.357 7.5 7.5 7.5h64.622c4.143 0 7.5-3.357 7.5-7.5s-3.357-7.5-7.5-7.5h-64.622c-4.142 0-7.5 3.357-7.5 7.5z"/><path d="m493.572 29.03h-384.442c-4.143 0-7.5 3.357-7.5 7.5s3.357 7.5 7.5 7.5h384.442c1.89 0 3.428 1.538 3.428 3.428v36.812h-482v-36.812c0-1.89 1.538-3.428 3.429-3.428h60.715c4.143 0 7.5-3.357 7.5-7.5s-3.357-7.5-7.5-7.5h-60.715c-10.162 0-18.429 8.266-18.429 18.428v417.085c0 10.161 8.267 18.428 18.429 18.428h393.952c4.143 0 7.5-3.357 7.5-7.5s-3.357-7.5-7.5-7.5h-393.952c-1.891 0-3.429-1.538-3.429-3.428v-365.274h482v365.273c0 1.89-1.538 3.428-3.428 3.428h-51.205c-4.143 0-7.5 3.357-7.5 7.5s3.357 7.5 7.5 7.5h51.205c10.161 0 18.428-8.267 18.428-18.428v-417.084c0-10.162-8.267-18.428-18.428-18.428z"/><path d="m223.963 361.05h10.354c7.794 0 14.135-6.341 14.135-14.135v-16.746c4.84-5.021 7.5-11.601 7.5-18.573 0-7.612-3.254-14.894-8.927-19.976-5.669-5.077-13.288-7.503-20.901-6.67-12.392 1.367-22.334 11.363-23.643 23.768-.837 7.938 1.839 15.732 7.348 21.45v16.747c-.001 7.794 6.34 14.135 14.134 14.135zm-6.565-50.759c.564-5.356 5.022-9.84 10.369-10.43 3.433-.374 6.716.664 9.248 2.933 2.501 2.24 3.936 5.449 3.936 8.803 0 3.122-1.219 6.069-3.43 8.296-2.625 2.642-4.07 6.162-4.07 9.914v16.244h-8.623v-16.244c0-3.748-1.447-7.271-4.074-9.919-2.546-2.567-3.737-5.975-3.356-9.597z"/><path d="m134.976 299.778c-4.143 0-7.5 3.357-7.5 7.5v91.283c0 10.39 8.453 18.843 18.844 18.843h123.443c11.995 13.84 29.682 22.621 49.391 22.621 36.045 0 65.37-29.325 65.37-65.37 0-32.067-23.217-58.797-53.721-64.31v-63.071c0-10.39-8.453-18.843-18.843-18.843h-104.631v-40.393c0-8.725 7.099-15.823 15.823-15.823h11.974c8.725 0 15.823 7.099 15.823 15.823v8.973c0 7.099 5.775 12.874 12.874 12.874h19.253c7.099 0 12.873-5.775 12.873-12.874v-8.973c0-33.538-27.285-60.823-60.823-60.823h-11.974c-33.538 0-60.823 27.285-60.823 60.823v40.393h-16.01c-10.391 0-18.844 8.453-18.844 18.843v30.018c0 4.143 3.357 7.5 7.5 7.5s7.5-3.357 7.5-7.5v-30.018c0-2.119 1.725-3.843 3.844-3.843h165.642c2.119 0 3.843 1.724 3.843 3.843v62.096c-34.494 1.75-62.02 30.364-62.02 65.285 0 9.917 2.231 19.32 6.2 27.749h-113.665c-2.119 0-3.844-1.724-3.844-3.843v-91.283c.001-4.143-3.357-7.5-7.499-7.5zm42.353-71.347v-40.393c0-25.267 20.557-45.823 45.823-45.823h11.974c25.267 0 45.823 20.557 45.823 45.823v6.847h-15v-6.847c0-16.996-13.827-30.823-30.823-30.823h-11.974c-16.996 0-30.823 13.827-30.823 30.823v40.393zm141.825 95.854c27.774 0 50.37 22.596 50.37 50.37s-22.596 50.37-50.37 50.37-50.37-22.596-50.37-50.37 22.596-50.37 50.37-50.37z"/><path d="m305.038 395.901c1.406 1.407 3.314 2.197 5.304 2.197s3.896-.79 5.304-2.196l31.887-31.887c2.929-2.93 2.929-7.678 0-10.607-2.93-2.928-7.678-2.928-10.607 0l-26.583 26.584-8.957-8.958c-2.929-2.93-7.678-2.929-10.606-.001-2.93 2.929-2.93 7.678-.001 10.606z"/></g></g></svg>