<svg id="Capa_1" enable-background="new 0 0 511.999 511.999" height="512" viewBox="0 0 511.999 511.999" width="512" xmlns="http://www.w3.org/2000/svg"><g><path d="m123.235 85.654-115.735 39.279v192.593c0 13.543 10.979 24.522 24.522 24.522h378.084c13.543 0 24.522-10.979 24.522-24.522v-192.593l-134.783-39.279z" fill="#f6e781"/><path d="m403.635 317.526c0 13.543-10.979 24.522-24.522 24.522h30.993c13.543 0 24.522-10.979 24.522-24.522v-192.593l-30.993-9.032z" fill="#f6e781"/><path d="m434.628 124.933-192.902 99.357c-12.965 6.678-28.359 6.678-41.324 0l-192.903-99.357v-26.757c0-13.543 10.979-24.522 24.522-24.522h378.084c13.543 0 24.522 10.979 24.522 24.522v26.757z" fill="#ecbe6b"/><path d="m410.106 73.654h-30.993c13.543 0 24.522 10.979 24.522 24.522v42.72l30.993-15.963v-26.757c0-13.543-10.979-24.522-24.522-24.522z" fill="#eab14d"/><g><path d="m430.125 437.274 72.079-52.369c1.442-1.048 2.295-2.722 2.295-4.505v-102.875c0-3.075-2.493-5.568-5.568-5.568h-144.159c-3.075 0-5.568 2.493-5.568 5.568v102.875c0 1.782.853 3.457 2.295 4.505l72.079 52.369c1.953 1.418 4.595 1.418 6.547 0z" fill="#70b9c6"/><path d="m498.931 271.957h-24.323v96.828c0 1.782-.853 3.457-2.295 4.505l-68.4 49.696 19.666 14.289c1.952 1.418 4.594 1.418 6.546 0l72.079-52.369c1.442-1.048 2.295-2.722 2.295-4.505v-102.876c0-3.075-2.492-5.568-5.568-5.568z" fill="#61aab7"/><g><path d="m454.624 386.082h-55.544c-2.275 0-4.12-1.844-4.12-4.12v-42.419c0-2.275 1.844-4.12 4.12-4.12h55.543c2.275 0 4.12 1.844 4.12 4.12v42.419c0 2.276-1.844 4.12-4.119 4.12z" fill="#f6e781"/><path d="m454.624 335.424h-19.995c2.275 0 4.12 1.844 4.12 4.12v42.419c0 2.275-1.844 4.12-4.12 4.12h19.995c2.275 0 4.12-1.844 4.12-4.12v-42.419c-.001-2.276-1.845-4.12-4.12-4.12z" fill="#f6e266"/></g></g><g><path d="m259.7 133.396h-77.272c-4.143 0-7.5 3.357-7.5 7.5s3.357 7.5 7.5 7.5h77.272c4.143 0 7.5-3.357 7.5-7.5s-3.357-7.5-7.5-7.5z"/><path d="m426.852 290.027c-13.309 0-24.137 10.828-24.137 24.137v13.76h-3.635c-6.407 0-11.62 5.213-11.62 11.62v42.419c0 6.407 5.213 11.62 11.62 11.62h55.543c6.407 0 11.62-5.213 11.62-11.62v-42.419c0-6.407-5.213-11.62-11.62-11.62h-3.635v-13.76c0-13.309-10.828-24.137-24.136-24.137zm-9.137 24.137c0-5.038 4.099-9.137 9.137-9.137s9.137 4.099 9.137 9.137v13.76h-18.273v-13.76zm33.528 64.419h-48.783v-35.659h48.783z"/><path d="m504.499 327.93c4.143 0 7.5-3.357 7.5-7.5v-42.905c0-7.205-5.862-13.067-13.067-13.067h-56.804v-166.282c0-17.657-14.365-32.022-32.021-32.022h-378.086c-17.656 0-32.021 14.365-32.021 32.022v144.356c0 4.143 3.357 7.5 7.5 7.5s7.5-3.357 7.5-7.5v-105.3l160.444 82.639-105.423 114.677h-38c-9.386 0-17.021-7.637-17.021-17.022v-45.006c0-4.143-3.357-7.5-7.5-7.5s-7.5 3.357-7.5 7.5v45.006c0 17.657 14.365 32.022 32.021 32.022h309.683v30.852c0 4.169 2.014 8.122 5.388 10.572l72.078 52.369c2.297 1.669 4.989 2.504 7.682 2.504 2.691 0 5.384-.835 7.682-2.504l72.079-52.369c3.373-2.45 5.387-6.402 5.387-10.572v-29.982c0-4.143-3.357-7.5-7.5-7.5s-7.5 3.357-7.5 7.5v28.998l-70.146 50.966-70.148-50.966v-99.958h140.295v40.973c-.002 4.142 3.355 7.499 7.498 7.499zm-414.102 6.618 98.875-107.553 7.695 3.964c7.544 3.885 15.82 5.828 24.096 5.828s16.553-1.943 24.097-5.828l7.695-3.964 88.849 96.648v10.906h-251.307zm264.375-70.09c-7.206 0-13.068 5.862-13.068 13.067v23.953l-75.021-81.606 51.393-26.471c3.682-1.897 5.13-6.42 3.233-10.103s-6.421-5.128-10.103-3.233l-72.916 37.557c-10.786 5.556-23.666 5.557-34.454 0l-188.836-97.262v-22.184c0-8.799 6.711-16.061 15.284-16.934.571-.058 1.151-.088 1.738-.088h378.085c.587 0 1.167.03 1.738.088 8.573.873 15.284 8.135 15.284 16.934v22.184l-89.231 45.959c-3.682 1.897-5.13 6.42-3.233 10.103s6.421 5.129 10.103 3.233l82.362-42.422v127.224h-72.358z"/></g></g></svg>