<svg id="Capa_1" enable-background="new 0 0 512 512" height="512" viewBox="0 0 512 512" width="512" xmlns="http://www.w3.org/2000/svg"><g><path d="m234.659 236.068c-40.204 0-72.795-32.591-72.795-72.795v-72.729c0-40.204 32.591-72.795 72.795-72.795 40.204 0 72.795 32.591 72.795 72.795v72.729c0 40.204-32.592 72.795-72.795 72.795z" fill="#738b95"/><path d="m234.659 17.749c-3.286 0-6.515.239-9.685.661 35.622 4.739 63.11 35.217 63.11 72.134v72.729c0 36.917-27.488 67.395-63.11 72.134 3.171.422 6.399.661 9.685.661 40.204 0 72.795-32.592 72.795-72.795v-72.729c0-40.204-32.592-72.795-72.795-72.795z" fill="#617881"/><path d="m234.659 296.655v-49.526c0-10.083-8.174-18.256-18.256-18.256h-4.313c-10.083 0-18.256 8.174-18.256 18.256 0-3.17 0 29.204 0 51.611 0 15.681 2.834 31.228 8.365 45.901l6.865 18.212c3.392 8.999 9.139 16.922 16.64 22.941 5.661 4.543 8.955 11.409 8.955 18.667v36.455h139.909v-5.016c0-15.22 4.156-30.272 12.643-42.906 6.932-10.319 10.751-22.575 10.751-35.284v-112.56z" fill="#f1d0a5"/><path d="m248.499 307.851h5.701c8.326 0 15.871-3.41 21.312-8.906 3.59-3.627 8.609-5.339 13.694-4.9 3.065.182 7.836.182 10.901 0 5.085-.439 10.103 1.273 13.694 4.9 5.441 5.496 12.986 8.906 21.312 8.906 2.243-.029 6.836.107 9.002-.18 5.137-.565 10.175 1.318 13.972 4.824 5.349 4.939 12.495 7.961 20.333 7.961h5.701c4.991 0 9.696-1.232 13.841-3.397v-71.909l-163.303-11.4v70.703c4.144 2.166 8.85 3.398 13.84 3.398z" fill="#f1b986"/><path d="m374.567 435.9c0-15.22 4.156-30.272 12.643-42.906 6.931-10.319 10.751-22.575 10.751-35.284v-112.56l-19.406 17.453v95.107c0 12.708-3.82 24.965-10.751 35.284-8.487 12.634-12.643 27.686-12.643 42.906v5.016h19.406z" fill="#f1b986"/><path d="m275.484 148.006v130.392c0 10.083-8.174 18.256-18.256 18.256h-4.313c-10.083 0-18.256-8.174-18.256-18.256v-130.392c0-10.083 8.174-18.256 18.256-18.256h4.313c10.083-.001 18.256 8.173 18.256 18.256z" fill="#f1d0a5"/><path d="m316.31 195.09v69.614c0 10.083-8.174 18.256-18.256 18.256h-4.313c-10.083 0-18.256-8.174-18.256-18.256v-69.614c0-10.083 8.174-18.256 18.256-18.256h4.313c10.082 0 18.256 8.173 18.256 18.256z" fill="#f1d0a5"/><g fill="#f1b986"><path d="m257.759 129.749c-3.06.037-7.644-.278-10.501.806 7.289 2.334 12.599 9.504 12.599 17.997v129.299c0 8.493-5.311 15.663-12.599 17.997 2.842 1.083 7.458.77 10.501.806 9.79 0 17.726-8.419 17.726-18.803v-129.298c-.001-10.385-7.937-18.804-17.726-18.804z"/><path d="m298.584 176.834c-3.06.037-7.644-.279-10.501.806 7.289 2.334 12.599 9.504 12.599 17.997v68.52c0 8.493-5.31 15.663-12.599 17.997 2.842 1.083 7.458.77 10.501.806 9.79 0 17.726-8.419 17.726-18.803v-68.52c0-10.385-7.936-18.803-17.726-18.803z"/><path d="m238.748 298.5-4.089-1.845v-49.526c0-9.626-7.455-17.494-16.904-18.188l.25 55.4c.071 8.982-9.133 15.036-17.365 11.443-2.257-.985-4.532-1.818-6.806-2.215v5.172c0 3.92.177 7.832.529 11.724 23.281 7.616 44.385-11.965 44.385-11.965z"/></g><g><path d="m397.961 257.007v33.995c0 10.083-8.174 18.256-18.256 18.256h-4.313c-10.083 0-18.256-8.174-18.256-18.256v-33.995c0-10.083 8.174-18.256 18.256-18.256h4.313c10.083 0 18.256 8.174 18.256 18.256z" fill="#f1d0a5"/><path d="m357.136 219.435v58.963c0 10.083-8.174 18.256-18.256 18.256h-4.313c-10.083 0-18.256-8.174-18.256-18.256v-58.963c0-10.083 8.174-18.256 18.256-18.256h4.313c10.082-.001 18.256 8.173 18.256 18.256z" fill="#f1d0a5"/><g fill="#f1b986"><path d="m380.236 238.751c-3.06.037-7.644-.278-10.501.806 7.289 2.334 12.599 9.504 12.599 17.997v32.902c0 8.493-5.31 15.663-12.599 17.997 2.842 1.083 7.458.77 10.501.806 9.79 0 17.726-8.418 17.726-18.803v-32.902c-.001-10.385-7.937-18.803-17.726-18.803z"/><path d="m339.41 201.178c-3.06.037-7.644-.278-10.501.806 7.289 2.334 12.599 9.504 12.599 17.997v57.87c0 8.493-5.31 15.663-12.599 17.997 2.842 1.083 7.458.77 10.501.806 9.79 0 17.726-8.419 17.726-18.803v-57.87c0-10.385-7.937-18.803-17.726-18.803z"/></g></g><path d="m380.137 504.5h-150.589c-7.673 0-13.893-6.22-13.893-13.893v-35.798c0-7.673 6.22-13.893 13.893-13.893h150.589c7.673 0 13.893 6.22 13.893 13.893v35.798c0 7.673-6.22 13.893-13.893 13.893z" fill="#e28086"/><path d="m380.137 440.916h-29.358c7.673 0 13.893 6.22 13.893 13.893v35.798c0 7.673-6.22 13.893-13.893 13.893h29.358c7.673 0 13.893-6.22 13.893-13.893v-35.798c0-7.673-6.22-13.893-13.893-13.893z" fill="#dd636e"/><g><path d="m114.039 58.049c4.143 0 7.5-3.357 7.5-7.5v-35.549h35.549c4.143 0 7.5-3.357 7.5-7.5s-3.357-7.5-7.5-7.5h-43.049c-4.143 0-7.5 3.357-7.5 7.5v43.049c0 4.142 3.357 7.5 7.5 7.5z"/><path d="m312.23 15h35.549v35.549c0 4.143 3.357 7.5 7.5 7.5s7.5-3.357 7.5-7.5v-43.049c0-4.143-3.357-7.5-7.5-7.5h-43.049c-4.143 0-7.5 3.357-7.5 7.5s3.357 7.5 7.5 7.5z"/><path d="m157.087 252.775h-35.549v-35.549c0-4.143-3.357-7.5-7.5-7.5s-7.5 3.357-7.5 7.5v43.049c0 4.143 3.357 7.5 7.5 7.5h43.049c4.143 0 7.5-3.357 7.5-7.5s-3.357-7.5-7.5-7.5z"/><path d="m279.454 115.015c4.143 0 7.5-3.357 7.5-7.5v-16.971c0-28.836-23.459-52.295-52.295-52.295s-52.296 23.459-52.296 52.295v72.729c0 13.332 5.036 26.036 14.181 35.773 1.476 1.572 3.47 2.366 5.469 2.366 1.84 0 3.685-.674 5.132-2.033 3.02-2.835 3.169-7.582.333-10.601-6.522-6.946-10.114-16.004-10.114-25.506v-72.728c0-20.564 16.73-37.295 37.296-37.295 20.564 0 37.295 16.73 37.295 37.295v16.971c-.001 4.142 3.356 7.5 7.499 7.5z"/><path d="m251.454 113.253c4.143 0 7.5-3.357 7.5-7.5v-15.209c0-13.396-10.898-24.295-24.295-24.295s-24.296 10.898-24.296 24.295v35.038c0 4.143 3.357 7.5 7.5 7.5s7.5-3.357 7.5-7.5v-35.038c0-5.125 4.17-9.295 9.296-9.295 5.125 0 9.295 4.17 9.295 9.295v15.209c0 4.143 3.357 7.5 7.5 7.5z"/><path d="m379.705 231.251c-5.024-.172-10.657.125-15.069 2.363v-14.179c0-14.202-11.554-25.757-25.756-25.757-5.024-.172-10.657.125-15.069 2.362v-.95c0-8.137-3.797-15.399-9.707-20.123 1.482-10.165.587-10.845.851-84.423 0-44.274-36.021-80.295-80.295-80.295-23.345 0-45.5 10.155-60.785 27.861-2.707 3.136-2.359 7.872.775 10.578 3.136 2.707 7.873 2.359 10.578-.775 12.435-14.403 30.451-22.664 49.432-22.664 36.004 0 65.295 29.291 65.295 65.295-.102 76.746.229 73.239-.291 78.845-5.52-.252-11.769-.173-16.679 2.307v-23.691c0-14.202-11.554-25.757-25.756-25.757h-4.312c-14.202 0-25.757 11.555-25.757 25.757v75.729c-3.276-1.512-6.918-2.363-10.757-2.363h-4.312c-2.025 0-3.993.242-5.884.686-22.385-10.857-36.841-33.915-36.841-58.784v-72.729c0-6.468.95-12.869 2.823-19.028 1.206-3.963-1.029-8.152-4.992-9.357-3.961-1.21-8.152 1.028-9.357 4.992-2.305 7.575-3.474 15.445-3.474 23.394v72.729c0 27.584 14.467 53.352 37.5 67.935-3.369 4.271-5.422 9.625-5.527 15.45-.003.084-.004.169-.004.255v51.827c0 16.639 2.977 32.973 8.848 48.547l6.865 18.212c3.864 10.25 10.422 19.291 18.963 26.145 3.908 3.136 6.149 7.808 6.149 12.817v29.097c-10.675 1.193-19.004 10.263-19.004 21.25v35.799c0 11.796 9.597 21.393 21.394 21.393h25.523c4.143 0 7.5-3.357 7.5-7.5s-3.357-7.5-7.5-7.5h-25.523c-3.525 0-6.394-2.868-6.394-6.393v-35.799c0-3.524 2.868-6.393 6.394-6.393h150.589c3.525 0 6.394 2.868 6.394 6.393v35.799c0 3.524-2.868 6.393-6.394 6.393h-95.079c-4.143 0-7.5 3.357-7.5 7.5s3.357 7.5 7.5 7.5h95.079c11.797 0 21.394-9.597 21.394-21.393v-35.799c0-11.131-8.547-20.294-19.423-21.293.414-13.367 4.307-25.887 11.328-36.341 2.9-4.317 5.326-8.964 7.212-13.811 1.501-3.86-.411-8.207-4.271-9.709-3.86-1.497-8.207.411-9.709 4.271-1.485 3.819-3.397 7.481-5.683 10.885-8.667 12.902-13.445 28.275-13.885 44.604h-124.943v-28.955c0-9.582-4.287-18.519-11.762-24.517-6.448-5.174-11.398-11.999-14.315-19.736l-6.865-18.212c-5.23-13.877-7.883-28.431-7.883-43.256v-51.611c0-5.932 4.825-10.757 10.756-10.757h4.312c5.932 0 10.757 4.825 10.757 10.757v49.525c0 4.143 3.357 7.5 7.5 7.5s7.5-3.357 7.5-7.5v-148.647c0-5.932 4.825-10.757 10.757-10.757h4.312c5.931 0 10.756 4.825 10.756 10.757v125.889c0 4.143 3.357 7.5 7.5 7.5s7.5-3.357 7.5-7.5v-78.805c0-5.931 4.825-10.756 10.757-10.756h4.312c5.932 0 10.757 4.825 10.757 10.756v78.62c0 4.143 3.357 7.5 7.5 7.5s7.5-3.357 7.5-7.5v-54.275c0-5.932 4.825-10.757 10.756-10.757h4.313c5.931 0 10.756 4.825 10.756 10.757v67.97c0 4.143 3.357 7.5 7.5 7.5s7.5-3.357 7.5-7.5v-30.397c0-5.931 4.825-10.756 10.757-10.756h4.312c5.932 0 10.757 4.825 10.757 10.756v92.863c0 4.143 3.357 7.5 7.5 7.5s7.5-3.357 7.5-7.5v-92.863c0-14.203-11.554-25.757-25.756-25.757z"/></g></g></svg>